<svg width="32" height="32" viewBox="0 0 32 32" fill="none" xmlns="http://www.w3.org/2000/svg">
<g clip-path="url(#clip0_485_866)">
<path d="M10.1186 21.4436V12.7553H8.11438V10.5272H12.8915V21.4436H10.1186Z" fill="white"/>
<path d="M23.3117 13.3487C23.3117 14.3022 22.796 15.139 21.9398 15.606C23.1365 16.1022 23.8857 17.1432 23.8857 18.3594C23.8857 20.3247 22.1441 21.5701 19.4199 21.5701C16.6957 21.5701 14.9541 20.3442 14.9541 18.408C14.9541 17.1627 15.7616 16.1022 17.0265 15.606C16.1119 15.0903 15.5184 14.2244 15.5184 13.2709C15.5184 11.5293 17.0459 10.4202 19.4102 10.4202C21.7939 10.4202 23.3117 11.5585 23.3117 13.3487ZM17.5616 18.1356C17.5616 19.0502 18.2135 19.5658 19.4102 19.5658C20.6069 19.5658 21.2782 19.0696 21.2782 18.1356C21.2782 17.2308 20.6069 16.7151 19.4102 16.7151C18.2135 16.7151 17.5616 17.2308 17.5616 18.1356ZM17.8437 13.5044C17.8437 14.2828 18.408 14.7206 19.4199 14.7206C20.4318 14.7206 20.9961 14.2828 20.9961 13.5044C20.9961 12.6969 20.4318 12.2396 19.4199 12.2396C18.3983 12.2493 17.8437 12.6969 17.8437 13.5044Z" fill="white"/>
<path d="M28.4974 11.7628C28.9547 13.125 29.1882 14.5455 29.1882 15.9951C29.1882 23.2727 23.2727 29.1882 15.9951 29.1882C8.71754 29.1882 2.8118 23.2727 2.8118 15.9951C2.8118 8.71754 8.72727 2.80207 16.0049 2.80207C17.4545 2.80207 18.875 3.03557 20.2372 3.49286V0.564305C18.8556 0.194588 17.4351 0 15.9951 0C7.1803 0 0 7.1803 0 15.9951C0 24.81 7.1803 31.9903 15.9951 31.9903C24.81 31.9903 31.9903 24.81 31.9903 15.9951C31.9903 14.5552 31.7957 13.1347 31.426 11.7628H28.4974Z" fill="#D416AA"/>
<path d="M27.6996 4.29065V1.22589H25.4911V4.29065H22.436V6.49923H25.4911V9.56399H27.6996V6.49923H30.7644V4.29065H27.6996Z" fill="white"/>
</g>
<defs>
<clipPath id="clip0_485_866">
<rect width="32" height="32" fill="white"/>
</clipPath>
</defs>
</svg>
