<svg width="141" height="74" viewBox="0 0 141 74" fill="none" xmlns="http://www.w3.org/2000/svg">
<g filter="url(#filter0_d_9_2956)">
<path d="M24.7649 19.0036C24.7649 19.7531 24.6486 20.4251 24.4159 21.0196C24.2092 21.614 23.912 22.1438 23.5243 22.6091C23.1366 23.0743 22.6843 23.4878 22.1674 23.8496C21.6505 24.2115 21.0819 24.5475 20.4616 24.8576C20.7459 24.961 21.0819 25.129 21.4696 25.3616C21.8573 25.5684 22.232 25.8656 22.5938 26.2533C22.9557 26.6409 23.2529 27.1449 23.4855 27.7652C23.744 28.3597 23.8732 29.0963 23.8732 29.975C23.8732 31.138 23.6277 32.2106 23.1366 33.1928C22.6455 34.1749 21.9089 35.0278 20.9268 35.7514C19.9705 36.4493 18.7816 37.005 17.3601 37.4185C15.9645 37.8062 14.3492 38 12.5141 38H1L6.2337 13.3822H16.4297C17.4377 13.3822 18.4327 13.4598 19.4149 13.6148C20.4228 13.7441 21.3145 14.0155 22.0899 14.429C22.8911 14.8425 23.5372 15.424 24.0283 16.1735C24.5193 16.8972 24.7649 17.8406 24.7649 19.0036ZM14.2199 23.6946C14.7885 23.6946 15.2667 23.5266 15.6544 23.1906C16.0679 22.8546 16.4039 22.4411 16.6623 21.95C16.9208 21.4331 17.1146 20.8903 17.2438 20.3217C17.3731 19.7273 17.4377 19.1975 17.4377 18.7322C17.4377 17.9827 17.2568 17.3495 16.8949 16.8326C16.5589 16.2898 16.0162 16.0185 15.2667 16.0185H14.1036L12.4366 23.6946H14.2199ZM11.4286 35.5576C12.204 35.5576 12.8501 35.3379 13.367 34.8985C13.8839 34.4592 14.3104 33.9164 14.6464 33.2703C14.9824 32.6242 15.215 31.9522 15.3442 31.2543C15.4993 30.5307 15.5768 29.8975 15.5768 29.3547C15.5768 28.4501 15.383 27.7394 14.9953 27.2225C14.6335 26.6797 14.039 26.4083 13.212 26.4083H11.7775L9.8779 35.5576H11.4286ZM32.5987 38H24.7288L28.2567 21.3297H36.2042L32.5987 38ZM37.2122 16.2511C37.2122 16.8455 37.0829 17.3624 36.8245 17.8018C36.5919 18.2412 36.2688 18.6159 35.8553 18.9261C35.4676 19.2362 35.0153 19.4688 34.4984 19.6239C33.9815 19.779 33.4516 19.8565 32.9089 19.8565C31.8751 19.8565 31.0093 19.611 30.3114 19.1199C29.6136 18.6289 29.2647 17.8535 29.2647 16.7938C29.2647 16.2252 29.381 15.7213 29.6136 15.2819C29.8462 14.8167 30.1564 14.4419 30.544 14.1576C30.9576 13.8475 31.4228 13.6148 31.9397 13.4598C32.4824 13.3047 33.0381 13.2272 33.6067 13.2272C34.6147 13.2272 35.4676 13.4727 36.1654 13.9638C36.8632 14.4548 37.2122 15.2173 37.2122 16.2511ZM53.6874 37.0696C52.6019 37.5089 51.4518 37.8191 50.237 38C49.0481 38.2068 47.6913 38.3101 46.1664 38.3101C44.8224 38.3101 43.5818 38.1809 42.4446 37.9225C41.3333 37.6382 40.3641 37.1988 39.537 36.6043C38.71 36.0099 38.0638 35.2475 37.5986 34.317C37.1334 33.3607 36.9008 32.2106 36.9008 30.8667C36.9008 29.471 37.1334 28.1787 37.5986 26.9899C38.0897 25.7751 38.8134 24.7155 39.7696 23.8109C40.7518 22.9063 41.9923 22.1955 43.4914 21.6786C44.9904 21.1617 46.7737 20.9033 48.8414 20.9033C50.5213 20.9033 51.9816 21.0454 53.2222 21.3297C54.4628 21.5882 55.4837 22.1955 56.2849 23.1518L55.1994 28.1141H49.9269C49.9527 27.6748 49.9786 27.2871 50.0044 26.9511C50.0303 26.6151 50.0432 26.2403 50.0432 25.8268C50.0432 24.9998 49.9527 24.4182 49.7718 24.0822C49.5909 23.7204 49.2937 23.5395 48.8802 23.5395C48.1565 23.5395 47.5233 23.9013 46.9805 24.625C46.4378 25.3228 45.9855 26.1757 45.6236 27.1837C45.2876 28.1658 45.0292 29.2126 44.8483 30.3239C44.6932 31.4094 44.6157 32.3399 44.6157 33.1152C44.6157 33.3995 44.6286 33.6967 44.6544 34.0069C44.6803 34.2912 44.732 34.5626 44.8095 34.821C44.9129 35.0795 45.0421 35.2862 45.1972 35.4413C45.3523 35.5964 45.5719 35.6739 45.8562 35.6739C46.1147 35.6739 46.4119 35.5964 46.7479 35.4413C47.0839 35.2862 47.407 35.0536 47.7171 34.7435C48.0273 34.4075 48.3245 33.981 48.6088 33.4641C48.8931 32.9472 49.1128 32.3269 49.2678 31.6033H54.8117L53.6874 37.0696ZM67.2362 23.8109H67.5076C67.9987 23.3198 68.5673 22.8675 69.2134 22.454C69.7562 22.0921 70.4023 21.7691 71.1518 21.4848C71.9013 21.2005 72.7413 21.0583 73.6718 21.0583C75.0157 21.0583 76.1271 21.4072 77.0058 22.1051C77.8846 22.777 78.3239 23.7075 78.3239 24.8964C78.3239 25.2582 78.2852 25.6717 78.2076 26.137C78.1301 26.5763 78.0396 27.0545 77.9363 27.5714C77.8329 28.0624 77.7166 28.5664 77.5873 29.0833C77.484 29.5744 77.3935 30.0267 77.316 30.4402L75.6877 38H67.8178L69.95 27.8815C70.0017 27.5455 70.0663 27.2095 70.1439 26.8735C70.2214 26.5117 70.2602 26.1886 70.2602 25.9043C70.2602 25.5167 70.1568 25.2065 69.95 24.9739C69.7691 24.7155 69.4848 24.5862 69.0971 24.5862C68.6319 24.5862 68.1796 24.7542 67.7402 25.0902C67.3267 25.4262 67.0036 25.7234 66.771 25.9819L64.2123 38H56.3036L61.8087 11.9478H69.7562L67.2362 23.8109ZM91.619 20.9033C94.6946 20.9033 96.9302 21.446 98.3259 22.5315C99.799 23.6687 100.536 25.5554 100.536 28.1917C100.536 29.8199 100.264 31.2931 99.7215 32.6112C99.1788 33.9035 98.4163 34.9761 97.4342 35.829C95.4699 37.4831 92.6269 38.3101 88.9052 38.3101C85.7262 38.3101 83.4518 37.7028 82.082 36.488C80.6088 35.2216 79.8722 33.322 79.8722 30.7891C79.8722 29.1092 80.2082 27.5843 80.8802 26.2145C81.578 24.8447 82.5731 23.7075 83.8653 22.8029C85.7521 21.5365 88.3366 20.9033 91.619 20.9033ZM88.9827 35.6739C89.6289 35.6739 90.1846 35.3121 90.6498 34.5884C91.1408 33.8647 91.5285 32.986 91.8128 31.9522C92.0971 30.8925 92.3039 29.807 92.4331 28.6956C92.5882 27.5585 92.6657 26.5763 92.6657 25.7493C92.6657 25.0256 92.5882 24.4828 92.4331 24.121C92.3039 23.7333 92.0067 23.5395 91.5414 23.5395C90.8436 23.5395 90.2362 23.9142 89.7193 24.6638C89.2283 25.4133 88.8277 26.3049 88.5175 27.3388C88.2074 28.3726 87.9748 29.4322 87.8197 30.5178C87.6905 31.6033 87.6259 32.482 87.6259 33.154C87.6259 34.8339 88.0782 35.6739 88.9827 35.6739Z" fill="white"/>
<path d="M24.4159 21.0196L22.6108 20.3132L22.5973 20.3477L22.5851 20.3828L24.4159 21.0196ZM22.1674 23.8496L21.0558 22.2616L21.0558 22.2616L22.1674 23.8496ZM20.4616 24.8576L19.5947 23.1238L15.564 25.1392L19.7992 26.6793L20.4616 24.8576ZM21.4696 25.3616L20.4723 27.0238L20.5142 27.0489L20.5574 27.072L21.4696 25.3616ZM22.5938 26.2533L21.1768 27.5759L21.1768 27.5759L22.5938 26.2533ZM23.4855 27.7652L21.6705 28.4458L21.688 28.4925L21.7079 28.5381L23.4855 27.7652ZM23.1366 33.1928L21.4028 32.3259H21.4028L23.1366 33.1928ZM20.9268 35.7514L22.0695 37.3173L22.0767 37.312L20.9268 35.7514ZM17.3601 37.4185L17.879 39.2862L17.8903 39.283L17.9016 39.2797L17.3601 37.4185ZM1 38L-0.896031 37.5969L-1.39383 39.9384H1V38ZM6.2337 13.3822V11.4438H4.66407L4.33767 12.9791L6.2337 13.3822ZM19.4149 13.6149L19.1125 15.5295L19.1404 15.5339L19.1684 15.5375L19.4149 13.6149ZM22.0899 14.429L21.1777 16.1393L21.1892 16.1455L21.2008 16.1515L22.0899 14.429ZM24.0283 16.1735L22.4069 17.2358L22.4155 17.249L22.4243 17.262L24.0283 16.1735ZM15.6544 23.1906L14.432 21.6861L14.4081 21.7056L14.3848 21.7257L15.6544 23.1906ZM16.6623 21.95L18.3777 22.8528L18.3871 22.8349L18.3961 22.8169L16.6623 21.95ZM17.2438 20.3217L19.134 20.7513L19.1361 20.7424L19.138 20.7335L17.2438 20.3217ZM16.8949 16.8326L15.2468 17.8529L15.2756 17.8994L15.3069 17.9442L16.8949 16.8326ZM14.1036 16.0185V14.0801H12.541L12.2094 15.6071L14.1036 16.0185ZM12.4366 23.6946L10.5423 23.2832L10.032 25.633H12.4366V23.6946ZM13.367 34.8985L12.1116 33.4216L12.1116 33.4216L13.367 34.8985ZM14.6464 33.2703L16.3662 34.1646H16.3662L14.6464 33.2703ZM15.3442 31.2543L13.4488 30.8482L13.4431 30.8747L13.4382 30.9014L15.3442 31.2543ZM14.9953 27.2225L13.3824 28.2977L13.4123 28.3425L13.4446 28.3855L14.9953 27.2225ZM11.7775 26.4083V24.4699H10.2003L9.87961 26.0143L11.7775 26.4083ZM9.8779 35.5576L7.97997 35.1635L7.49569 37.496H9.8779V35.5576ZM22.8265 19.0036C22.8265 19.5528 22.7414 19.9794 22.6108 20.3132L26.2211 21.7259C26.5557 20.8709 26.7033 19.9535 26.7033 19.0036H22.8265ZM22.5851 20.3828C22.4519 20.7657 22.2677 21.0891 22.0352 21.3681L25.0134 23.85C25.5562 23.1986 25.9664 22.4623 26.2468 21.6564L22.5851 20.3828ZM22.0352 21.3681C21.7619 21.696 21.438 21.9941 21.0558 22.2616L23.279 25.4376C23.9307 24.9815 24.5113 24.4525 25.0134 23.85L22.0352 21.3681ZM21.0558 22.2616C20.624 22.5639 20.1382 22.8521 19.5947 23.1238L21.3285 26.5914C22.0256 26.2428 22.677 25.859 23.279 25.4376L21.0558 22.2616ZM19.7992 26.6793C19.9251 26.7251 20.1442 26.8269 20.4723 27.0238L22.4669 23.6994C22.0195 23.431 21.5667 23.1969 21.124 23.0359L19.7992 26.6793ZM20.5574 27.072C20.7222 27.1598 20.9315 27.3131 21.1768 27.5759L24.0109 24.9306C23.5325 24.4181 22.9923 23.9769 22.3818 23.6512L20.5574 27.072ZM21.1768 27.5759C21.3278 27.7377 21.5057 28.0063 21.6705 28.4458L25.3005 27.0846C25.0001 26.2836 24.5836 25.5442 24.0109 24.9306L21.1768 27.5759ZM21.7079 28.5381C21.8297 28.8184 21.9348 29.2731 21.9348 29.975H25.8116C25.8116 28.9194 25.6582 27.9009 25.2632 26.9923L21.7079 28.5381ZM21.9348 29.975C21.9348 30.8554 21.7514 31.6288 21.4028 32.3259L24.8704 34.0596C25.5039 32.7925 25.8116 31.4207 25.8116 29.975H21.9348ZM21.4028 32.3259C21.0635 33.0046 20.5401 33.6286 19.777 34.1909L22.0767 37.312C23.2778 36.427 24.2276 35.3452 24.8704 34.0596L21.4028 32.3259ZM19.7842 34.1856C19.0487 34.7223 18.0761 35.1914 16.8187 35.5572L17.9016 39.2797C19.4872 38.8185 20.8924 38.1762 22.0694 37.3173L19.7842 34.1856ZM16.8413 35.5508C15.6526 35.881 14.2181 36.0616 12.5141 36.0616V39.9384C14.4802 39.9384 16.2764 39.7313 17.879 39.2862L16.8413 35.5508ZM12.5141 36.0616H1V39.9384H12.5141V36.0616ZM2.89603 38.4031L8.12973 13.7853L4.33767 12.9791L-0.896031 37.5969L2.89603 38.4031ZM6.2337 15.3206H16.4297V11.4438H6.2337V15.3206ZM16.4297 15.3206C17.3378 15.3206 18.2318 15.3905 19.1125 15.5295L19.7172 11.7002C18.6337 11.5291 17.5375 11.4438 16.4297 11.4438V15.3206ZM19.1684 15.5375C19.9793 15.6415 20.6392 15.8522 21.1777 16.1393L23.0021 12.7186C21.9898 12.1787 20.8664 11.8467 19.6614 11.6922L19.1684 15.5375ZM21.2008 16.1515C21.707 16.4128 22.1001 16.7677 22.4069 17.2358L25.6497 15.1112C24.9743 14.0804 24.0751 13.2723 22.9789 12.7065L21.2008 16.1515ZM22.4243 17.262C22.6361 17.5741 22.8265 18.1029 22.8265 19.0036H26.7033C26.7033 17.5783 26.4025 16.2203 25.6323 15.0851L22.4243 17.262ZM14.2199 25.633C15.2007 25.633 16.1448 25.3306 16.9239 24.6554L14.3848 21.7257C14.3729 21.7361 14.3686 21.7376 14.3624 21.7398C14.3534 21.7429 14.3118 21.7562 14.2199 21.7562V25.633ZM16.8767 24.695C17.5019 24.187 18.0024 23.5658 18.3777 22.8528L14.947 21.0472C14.8054 21.3163 14.6338 21.5222 14.432 21.6861L16.8767 24.695ZM18.3961 22.8169C18.7246 22.1598 18.9707 21.4701 19.134 20.7513L15.3536 19.8921C15.2585 20.3106 15.1169 20.7064 14.9286 21.0831L18.3961 22.8169ZM19.138 20.7335C19.2882 20.0426 19.3761 19.3706 19.3761 18.7322H15.4993C15.4993 19.0243 15.4579 19.412 15.3497 19.91L19.138 20.7335ZM19.3761 18.7322C19.3761 17.6615 19.1131 16.6212 18.4829 15.721L15.3069 17.9442C15.4004 18.0778 15.4993 18.304 15.4993 18.7322H19.3761ZM18.5431 15.8123C17.7871 14.5911 16.5503 14.0801 15.2667 14.0801V17.9569C15.4099 17.9569 15.4226 17.9826 15.369 17.9558C15.3427 17.9426 15.3134 17.923 15.2868 17.8984C15.2607 17.8742 15.2485 17.8556 15.2468 17.8529L18.5431 15.8123ZM15.2667 14.0801H14.1036V17.9569H15.2667V14.0801ZM12.2094 15.6071L10.5423 23.2832L14.3308 24.1059L15.9979 16.4298L12.2094 15.6071ZM12.4366 25.633H14.2199V21.7562H12.4366V25.633ZM11.4286 37.496C12.5942 37.496 13.7054 37.155 14.6224 36.3755L12.1116 33.4216C11.9949 33.5208 11.8138 33.6192 11.4286 33.6192V37.496ZM14.6224 36.3755C15.344 35.7621 15.9231 35.0166 16.3662 34.1646L12.9266 32.376C12.6977 32.8162 12.4238 33.1562 12.1116 33.4216L14.6224 36.3755ZM16.3662 34.1646C16.7883 33.3527 17.0851 32.4987 17.2502 31.6073L13.4382 30.9014C13.3448 31.4056 13.1764 31.8956 12.9266 32.376L16.3662 34.1646ZM17.2396 31.6605C17.4137 30.8479 17.5152 30.0731 17.5152 29.3547H13.6384C13.6384 29.7218 13.5849 30.2134 13.4488 30.8482L17.2396 31.6605ZM17.5152 29.3547C17.5152 28.1944 17.2685 27.0227 16.546 26.0594L13.4446 28.3855C13.4975 28.4561 13.6384 28.7058 13.6384 29.3547H17.5152ZM16.6081 26.1472C15.7903 24.9204 14.4913 24.4699 13.212 24.4699V28.3467C13.4191 28.3467 13.4863 28.3812 13.4731 28.3752C13.4653 28.3716 13.4462 28.3613 13.4237 28.3422C13.4013 28.3231 13.3877 28.3056 13.3824 28.2977L16.6081 26.1472ZM13.212 24.4699H11.7775V28.3467H13.212V24.4699ZM9.87961 26.0143L7.97997 35.1635L11.7758 35.9517L13.6755 26.8024L9.87961 26.0143ZM9.8779 37.496H11.4286V33.6192H9.8779V37.496ZM32.5987 38V39.9384H34.1627L34.4933 38.4098L32.5987 38ZM24.7288 38L22.8324 37.5987L22.3373 39.9384H24.7288V38ZM28.2567 21.3297V19.3913H26.6856L26.3603 20.9284L28.2567 21.3297ZM36.2042 21.3297L38.0988 21.7395L38.6066 19.3913H36.2042V21.3297ZM36.8245 17.8018L35.1537 16.819L35.1317 16.8564L35.1113 16.8948L36.8245 17.8018ZM35.8553 18.9261L34.6922 17.3754L34.668 17.3935L34.6444 17.4124L35.8553 18.9261ZM34.4984 19.6239L33.9414 17.7673L33.9414 17.7673L34.4984 19.6239ZM30.3114 19.1199L29.1959 20.7052H29.1959L30.3114 19.1199ZM29.6136 15.2819L31.3267 16.1888L31.3373 16.1689L31.3474 16.1488L29.6136 15.2819ZM30.544 14.1576L31.6903 15.7207L31.6987 15.7146L31.7071 15.7083L30.544 14.1576ZM31.9397 13.4598L31.4072 11.596L31.3949 11.5995L31.3827 11.6031L31.9397 13.4598ZM36.1654 13.9638L35.0499 15.549V15.549L36.1654 13.9638ZM32.5987 36.0616H24.7288V39.9384H32.5987V36.0616ZM26.6252 38.4013L30.1531 21.731L26.3603 20.9284L22.8324 37.5987L26.6252 38.4013ZM28.2567 23.2681H36.2042V19.3913H28.2567V23.2681ZM34.3096 20.9199L30.7041 37.5902L34.4933 38.4098L38.0988 21.7395L34.3096 20.9199ZM35.2737 16.2511C35.2737 16.558 35.2096 16.7239 35.1537 16.819L38.4953 18.7846C38.9562 18.001 39.1506 17.133 39.1506 16.2511H35.2737ZM35.1113 16.8948C35.0178 17.0716 34.8865 17.2296 34.6922 17.3754L37.0183 20.4768C37.6511 20.0022 38.166 19.4108 38.5376 18.7088L35.1113 16.8948ZM34.6444 17.4124C34.4669 17.5544 34.2412 17.6773 33.9414 17.7673L35.0554 21.4806C35.7894 21.2604 36.4682 20.9181 37.0662 20.4397L34.6444 17.4124ZM33.9414 17.7673C33.6062 17.8678 33.2641 17.9181 32.9089 17.9181V21.7949C33.6392 21.7949 34.3567 21.6902 35.0554 21.4806L33.9414 17.7673ZM32.9089 17.9181C32.1884 17.9181 31.7343 17.751 31.427 17.5347L29.1959 20.7052C30.2842 21.471 31.5617 21.7949 32.9089 21.7949V17.9181ZM31.427 17.5347C31.371 17.4953 31.2031 17.3943 31.2031 16.7938H27.3263C27.3263 18.3127 27.8562 19.7624 29.1959 20.7052L31.427 17.5347ZM31.2031 16.7938C31.2031 16.4956 31.2621 16.3109 31.3267 16.1888L27.9005 14.3749C27.4999 15.1316 27.3263 15.9549 27.3263 16.7938H31.2031ZM31.3474 16.1488C31.4538 15.9359 31.571 15.8083 31.6903 15.7207L29.3977 12.5945C28.7417 13.0755 28.2386 13.6974 27.8798 14.415L31.3474 16.1488ZM31.7071 15.7083C31.9302 15.541 32.1885 15.4089 32.4967 15.3164L31.3827 11.6031C30.6571 11.8208 29.9849 12.1539 29.381 12.6069L31.7071 15.7083ZM32.4722 15.3236C32.8405 15.2184 33.2169 15.1656 33.6067 15.1656V11.2888C32.8593 11.2888 32.1244 11.391 31.4072 11.596L32.4722 15.3236ZM33.6067 15.1656C34.2896 15.1656 34.7345 15.3271 35.0499 15.549L37.281 12.3785C36.2007 11.6183 34.9398 11.2888 33.6067 11.2888V15.1656ZM35.0499 15.549C35.1193 15.5979 35.2737 15.6968 35.2737 16.2511H39.1506C39.1506 14.7378 38.6071 13.3118 37.281 12.3785L35.0499 15.549ZM53.6874 37.0696L54.4147 38.8664L55.3769 38.4769L55.5861 37.4601L53.6874 37.0696ZM50.237 38L49.9515 36.0827L49.9282 36.0862L49.9049 36.0903L50.237 38ZM42.4446 37.9225L41.9642 39.8004L41.9896 39.8069L42.015 39.8127L42.4446 37.9225ZM39.537 36.6043L38.4057 38.1784L39.537 36.6043ZM37.5986 34.317L35.8555 35.165L35.8601 35.1745L35.8649 35.1839L37.5986 34.317ZM37.5986 26.9899L35.8015 26.2634L35.7974 26.2734L35.7935 26.2835L37.5986 26.9899ZM39.7696 23.8109L38.4564 22.3851L38.4469 22.3938L38.4376 22.4027L39.7696 23.8109ZM43.4914 21.6786L42.8595 19.8461L43.4914 21.6786ZM53.2222 21.3297L52.7892 23.2191L52.808 23.2234L52.8268 23.2274L53.2222 21.3297ZM56.2849 23.1518L58.1785 23.566L58.3819 22.6364L57.7707 21.9069L56.2849 23.1518ZM55.1994 28.1141V30.0525H56.7596L57.093 28.5284L55.1994 28.1141ZM49.9269 28.1141L47.9918 28.0003L47.8711 30.0525H49.9269V28.1141ZM50.0044 26.9511L48.0717 26.8024V26.8024L50.0044 26.9511ZM49.7718 24.0822L48.0381 24.9491L48.0512 24.9754L48.0651 25.0012L49.7718 24.0822ZM46.9805 24.625L48.5106 25.8151L48.521 25.8016L48.5312 25.788L46.9805 24.625ZM45.6236 27.1837L43.7992 26.5288L43.7943 26.5425L43.7896 26.5563L45.6236 27.1837ZM44.8483 30.3239L42.935 30.0125L42.932 30.0311L42.9293 30.0498L44.8483 30.3239ZM44.6544 34.0069L42.7227 34.1679L42.7233 34.1751L42.724 34.1824L44.6544 34.0069ZM44.8095 34.821L42.9528 35.378L42.9777 35.4607L43.0097 35.5409L44.8095 34.821ZM45.1972 35.4413L43.8265 36.812L43.8265 36.812L45.1972 35.4413ZM46.7479 35.4413L47.5602 37.2013L46.7479 35.4413ZM47.7171 34.7435L49.0878 36.1141L49.1152 36.0867L49.1415 36.0583L47.7171 34.7435ZM48.6088 33.4641L50.3072 34.3983V34.3983L48.6088 33.4641ZM49.2678 31.6033V29.6649H47.7008L47.3725 31.1971L49.2678 31.6033ZM54.8117 31.6033L56.7103 31.9938L57.1893 29.6649H54.8117V31.6033ZM52.9601 35.2728C52.0233 35.6519 51.0221 35.9233 49.9515 36.0827L50.5226 39.9173C51.8814 39.7149 53.1805 39.3659 54.4147 38.8664L52.9601 35.2728ZM49.9049 36.0903C48.8499 36.2737 47.6075 36.3717 46.1664 36.3717V40.2486C47.775 40.2486 49.2464 40.1398 50.5692 39.9097L49.9049 36.0903ZM46.1664 36.3717C44.9456 36.3717 43.851 36.2543 42.8742 36.0323L42.015 39.8127C43.3126 40.1076 44.6993 40.2486 46.1664 40.2486V36.3717ZM42.925 36.0445C42.0183 35.8126 41.2761 35.4671 40.6684 35.0303L38.4057 38.1784C39.4521 38.9305 40.6483 39.4637 41.9642 39.8004L42.925 36.0445ZM40.6684 35.0303C40.1021 34.6233 39.6602 34.1058 39.3324 33.4501L35.8649 35.1839C36.4675 36.3892 37.3179 37.3965 38.4057 38.1784L40.6684 35.0303ZM39.3417 33.469C39.0343 32.8372 38.8392 31.9921 38.8392 30.8667H34.9624C34.9624 32.4291 35.2325 33.8843 35.8555 35.165L39.3417 33.469ZM38.8392 30.8667C38.8392 29.6901 39.0345 28.6399 39.4038 27.6962L35.7935 26.2835C35.2323 27.7176 34.9624 29.2519 34.9624 30.8667H38.8392ZM39.3957 27.7163C39.782 26.7608 40.3466 25.9333 41.1017 25.2191L38.4376 22.4027C37.2801 23.4976 36.3974 24.7894 35.8015 26.2634L39.3957 27.7163ZM41.0829 25.2367C41.835 24.5439 42.8303 23.957 44.1233 23.5111L42.8595 19.8461C41.1544 20.4341 39.6685 21.2687 38.4564 22.3851L41.0829 25.2367ZM44.1233 23.5111C45.3679 23.082 46.9271 22.8417 48.8414 22.8417V18.9649C46.6204 18.9649 44.613 19.2415 42.8595 19.8461L44.1233 23.5111ZM48.8414 22.8417C50.419 22.8417 51.7275 22.9758 52.7892 23.2191L53.6552 19.4403C52.2357 19.115 50.6237 18.9649 48.8414 18.9649V22.8417ZM52.8268 23.2274C53.6482 23.3985 54.2824 23.78 54.799 24.3967L57.7707 21.9069C56.6849 20.611 55.2773 19.7778 53.6175 19.432L52.8268 23.2274ZM54.3912 22.7376L53.3057 27.6999L57.093 28.5284L58.1785 23.566L54.3912 22.7376ZM55.1994 26.1757H49.9269V30.0525H55.1994V26.1757ZM51.8619 28.228C51.8873 27.7969 51.9124 27.4213 51.9371 27.0998L48.0717 26.8024C48.0448 27.1529 48.0182 27.5526 47.9918 28.0003L51.8619 28.228ZM51.9371 27.0998C51.9675 26.7047 51.9816 26.2793 51.9816 25.8268H48.1048C48.1048 26.2014 48.093 26.5255 48.0717 26.8024L51.9371 27.0998ZM51.9816 25.8268C51.9816 24.9709 51.9069 23.9589 51.4785 23.1632L48.0651 25.0012C48.0107 24.9002 48.0323 24.8901 48.06 25.0683C48.0851 25.23 48.1048 25.4764 48.1048 25.8268H51.9816ZM51.5056 23.2154C51.2791 22.7625 50.9288 22.3285 50.4211 22.0194C49.9158 21.7118 49.3748 21.6011 48.8801 21.6011V25.4779C48.799 25.4779 48.6134 25.4576 48.4053 25.331C48.1948 25.2028 48.0836 25.0402 48.0381 24.9491L51.5056 23.2154ZM48.8801 21.6011C47.395 21.6011 46.2371 22.3855 45.4298 23.462L48.5312 25.788C48.6809 25.5885 48.7855 25.516 48.8242 25.4939C48.8503 25.479 48.8584 25.4779 48.8801 25.4779V21.6011ZM45.4504 23.4349C44.7586 24.3245 44.2161 25.3673 43.7992 26.5288L47.448 27.8386C47.7548 26.9841 48.1169 26.3212 48.5106 25.8151L45.4504 23.4349ZM43.7896 26.5563C43.4156 27.6495 43.132 28.8027 42.935 30.0125L46.7615 30.6354C46.9264 29.6224 47.1597 28.6821 47.4577 27.8111L43.7896 26.5563ZM42.9293 30.0498C42.7661 31.1921 42.6772 32.2192 42.6772 33.1152H46.5541C46.5541 32.4605 46.6202 31.6267 46.7672 30.598L42.9293 30.0498ZM42.6772 33.1152C42.6772 33.458 42.6928 33.8091 42.7227 34.1679L46.5861 33.8459C46.5643 33.5843 46.5541 33.341 46.5541 33.1152H42.6772ZM42.724 34.1824C42.7609 34.5886 42.8359 34.9882 42.9528 35.378L46.6662 34.264C46.628 34.1369 46.5996 33.9938 46.5849 33.8314L42.724 34.1824ZM43.0097 35.5409C43.1853 35.9799 43.4431 36.4285 43.8265 36.812L46.5678 34.0706C46.6048 34.1076 46.6231 34.1352 46.6277 34.1426C46.632 34.1494 46.6241 34.1381 46.6093 34.1011L43.0097 35.5409ZM43.8265 36.812C44.4439 37.4293 45.2168 37.6123 45.8562 37.6123V33.7355C45.8871 33.7355 45.9861 33.7394 46.1234 33.7879C46.2691 33.8393 46.4281 33.9309 46.5678 34.0706L43.8265 36.812ZM45.8562 37.6123C46.4891 37.6123 47.0715 37.4269 47.5602 37.2013L45.9356 33.6813C45.8513 33.7202 45.8017 33.7354 45.7837 33.7401C45.7658 33.7448 45.7928 33.7355 45.8562 33.7355V37.6123ZM47.5602 37.2013C48.1383 36.9345 48.6452 36.5567 49.0878 36.1141L46.3464 33.3728C46.1687 33.5505 46.0294 33.638 45.9356 33.6813L47.5602 37.2013ZM49.1415 36.0583C49.5836 35.5793 49.9679 35.0152 50.3072 34.3983L46.9103 32.53C46.681 32.9468 46.4709 33.2357 46.2928 33.4287L49.1415 36.0583ZM50.3072 34.3983C50.7022 33.6801 50.9782 32.873 51.1632 32.0094L47.3725 31.1971C47.2474 31.7809 47.0839 32.2144 46.9103 32.53L50.3072 34.3983ZM49.2678 33.5417H54.8117V29.6649H49.2678V33.5417ZM52.913 31.2128L51.7887 36.6791L55.5861 37.4601L56.7103 31.9938L52.913 31.2128ZM67.2363 23.8109L65.3401 23.4081L64.8428 25.7493H67.2363V23.8109ZM67.5076 23.8109V25.7493H68.3105L68.8783 25.1815L67.5076 23.8109ZM69.2134 22.454L70.2583 24.0866L70.2736 24.0769L70.2887 24.0668L69.2134 22.454ZM71.1518 21.4848L70.4644 19.6724L71.1518 21.4848ZM77.0058 22.1051L75.8004 23.6231L75.8142 23.6341L75.8283 23.6449L77.0058 22.1051ZM78.2076 26.137L80.1165 26.4738L80.1181 26.4647L80.1197 26.4556L78.2076 26.137ZM77.9362 27.5714L79.8331 27.9707L79.8351 27.9611L79.837 27.9515L77.9362 27.5714ZM77.5873 29.0833L75.7068 28.6132L75.698 28.6484L75.6905 28.684L77.5873 29.0833ZM77.316 30.4402L79.2109 30.8484L79.2164 30.823L79.2212 30.7974L77.316 30.4402ZM75.6877 38V39.9384H77.2531L77.5826 38.4081L75.6877 38ZM67.8178 38L65.921 37.6003L65.4283 39.9384H67.8178V38ZM69.95 27.8815L71.8468 28.2812L71.8578 28.229L71.8659 28.1763L69.95 27.8815ZM70.1439 26.8735L72.0326 27.3094L72.036 27.2946L72.0392 27.2797L70.1439 26.8735ZM69.95 24.9739L68.362 26.0855L68.4265 26.1777L68.5012 26.2617L69.95 24.9739ZM67.7402 25.0902L66.5628 23.5504L66.5401 23.5678L66.5179 23.5858L67.7402 25.0902ZM66.771 25.9819L65.3302 24.6852L64.9832 25.0708L64.8751 25.5782L66.771 25.9819ZM64.2123 38V39.9384H65.7815L66.1082 38.4036L64.2123 38ZM56.3036 38L54.4071 37.5992L53.9128 39.9384H56.3036V38ZM61.8087 11.9478V10.0094H60.2371L59.9122 11.5471L61.8087 11.9478ZM69.7562 11.9478L71.6523 12.3506L72.1496 10.0094H69.7562V11.9478ZM67.2363 25.7493H67.5076V21.8725H67.2363V25.7493ZM68.8783 25.1815C69.2609 24.799 69.7178 24.4326 70.2583 24.0866L68.1685 20.8213C67.4168 21.3024 66.7365 21.8407 66.137 22.4402L68.8783 25.1815ZM70.2887 24.0668C70.6862 23.8018 71.1964 23.541 71.8393 23.2972L70.4644 19.6724C69.6082 19.9971 68.8261 20.3825 68.1382 20.8411L70.2887 24.0668ZM71.8393 23.2972C72.3369 23.1084 72.9391 22.9967 73.6718 22.9967V19.1199C72.5436 19.1199 71.4658 19.2925 70.4644 19.6724L71.8393 23.2972ZM73.6718 22.9967C74.6676 22.9967 75.3286 23.2484 75.8004 23.6231L78.2113 20.5871C76.9255 19.566 75.3638 19.1199 73.6718 19.1199V22.9967ZM75.8283 23.6449C76.1875 23.9195 76.3855 24.259 76.3855 24.8964H80.2623C80.2623 23.156 79.5817 21.6346 78.1833 20.5653L75.8283 23.6449ZM76.3855 24.8964C76.3855 25.125 76.3605 25.4287 76.2956 25.8183L80.1197 26.4556C80.2098 25.9148 80.2623 25.3914 80.2623 24.8964H76.3855ZM76.2987 25.8001C76.2241 26.2227 76.1365 26.6862 76.0355 27.1912L79.837 27.9515C79.9428 27.4227 80.036 26.93 80.1165 26.4738L76.2987 25.8001ZM76.0394 27.172C75.9413 27.638 75.8305 28.1184 75.7068 28.6132L79.4679 29.5535C79.6026 29.0145 79.7244 28.4869 79.8331 27.9707L76.0394 27.172ZM75.6905 28.684C75.5847 29.1865 75.4914 29.653 75.4108 30.083L79.2212 30.7974C79.2956 30.4003 79.3832 29.9623 79.4842 29.4827L75.6905 28.684ZM75.421 30.0321L73.7927 37.5919L77.5826 38.4081L79.2109 30.8484L75.421 30.0321ZM75.6877 36.0616H67.8178V39.9384H75.6877V36.0616ZM69.7145 38.3997L71.8468 28.2812L68.0533 27.4818L65.921 37.6003L69.7145 38.3997ZM71.8659 28.1763C71.9102 27.8883 71.9657 27.5994 72.0326 27.3094L68.2551 26.4377C68.1669 26.8197 68.0932 27.2027 68.0341 27.5868L71.8659 28.1763ZM72.0392 27.2797C72.1373 26.822 72.1986 26.3589 72.1986 25.9043H68.3218C68.3218 26.0184 68.3055 26.2015 68.2485 26.4674L72.0392 27.2797ZM72.1986 25.9043C72.1986 25.1631 71.9931 24.3547 71.3988 23.6861L68.5012 26.2617C68.4215 26.172 68.3708 26.0751 68.3437 25.994C68.3186 25.9186 68.3218 25.8812 68.3218 25.9043H72.1986ZM71.538 23.8623C70.9097 22.9648 69.9538 22.6478 69.0971 22.6478V26.5246C69.0792 26.5246 68.9619 26.5218 68.799 26.4478C68.6221 26.3674 68.4683 26.2373 68.362 26.0855L71.538 23.8623ZM69.0971 22.6478C68.13 22.6478 67.2742 23.0064 66.5628 23.5504L68.9177 26.63C69.0065 26.5621 69.0623 26.5374 69.0839 26.5293C69.1022 26.5225 69.1034 26.5246 69.0971 26.5246V22.6478ZM66.5179 23.5858C66.0627 23.9556 65.6556 24.3236 65.3302 24.6852L68.2118 27.2786C68.3517 27.1232 68.5907 26.8968 68.9626 26.5946L66.5179 23.5858ZM64.8751 25.5782L62.3164 37.5964L66.1082 38.4036L68.6669 26.3855L64.8751 25.5782ZM64.2123 36.0616H56.3036V39.9384H64.2123V36.0616ZM58.2002 38.4008L63.7052 12.3486L59.9122 11.5471L54.4071 37.5992L58.2002 38.4008ZM61.8087 13.8862H69.7562V10.0094H61.8087V13.8862ZM67.8601 11.5451L65.3401 23.4081L69.1323 24.2136L71.6523 12.3506L67.8601 11.5451ZM98.3259 22.5315L97.1358 24.0616L97.1414 24.0659L98.3259 22.5315ZM99.7215 32.6112L101.509 33.3619L101.514 33.3493L99.7215 32.6112ZM97.4342 35.829L98.6828 37.3117L98.6941 37.3022L98.7052 37.2925L97.4342 35.829ZM82.082 36.488L83.3681 35.0378L83.357 35.0278L83.3456 35.0181L82.082 36.488ZM80.8802 26.2145L79.153 25.3346L79.1464 25.3476L79.1399 25.3608L80.8802 26.2145ZM83.8653 22.8029L82.785 21.1934L82.7693 21.204L82.7537 21.2149L83.8653 22.8029ZM90.6498 34.5884L89.0458 33.5L89.0323 33.5199L89.0192 33.5402L90.6498 34.5884ZM91.8128 31.9522L93.6819 32.4662L93.685 32.4545L91.8128 31.9522ZM92.4331 28.6957L90.5125 28.4337L90.5099 28.4527L90.5077 28.4718L92.4331 28.6957ZM92.4331 24.121L90.5942 24.734L90.6197 24.8105L90.6514 24.8846L92.4331 24.121ZM89.7193 24.6638L88.1236 23.5633L88.1105 23.5822L88.0979 23.6015L89.7193 24.6638ZM88.5175 27.3388L90.3742 27.8958V27.8958L88.5175 27.3388ZM87.8197 30.5178L85.9008 30.2436L85.8976 30.2661L85.8949 30.2886L87.8197 30.5178ZM91.619 22.8417C94.5495 22.8417 96.2525 23.3746 97.1358 24.0616L99.5159 21.0014C97.6079 19.5174 94.8397 18.9649 91.619 18.9649V22.8417ZM97.1414 24.0659C97.9633 24.7004 98.5972 25.8922 98.5972 28.1917H102.474C102.474 25.2187 101.635 22.637 99.5103 20.9971L97.1414 24.0659ZM98.5972 28.1917C98.5972 29.6025 98.3627 30.8201 97.9291 31.8732L101.514 33.3493C102.166 31.7661 102.474 30.0374 102.474 28.1917H98.5972ZM97.9343 31.8606C97.4976 32.9005 96.9038 33.7223 96.1632 34.3654L98.7052 37.2925C99.9289 36.2299 100.86 34.9065 101.509 33.3618L97.9343 31.8606ZM96.1856 34.3463C94.6985 35.5985 92.3707 36.3717 88.9052 36.3717V40.2486C92.8832 40.2486 96.2413 39.3676 98.6828 37.3117L96.1856 34.3463ZM88.9052 36.3717C85.8816 36.3717 84.2014 35.7767 83.3681 35.0378L80.7959 37.9383C82.7023 39.6289 85.5708 40.2486 88.9052 40.2486V36.3717ZM83.3456 35.0181C82.4225 34.2246 81.8106 32.9402 81.8106 30.7891H77.9338C77.9338 33.7037 78.7951 36.2187 80.8184 37.958L83.3456 35.0181ZM81.8106 30.7891C81.8106 29.3748 82.0916 28.1464 82.6205 27.0682L79.1399 25.3608C78.3249 27.0222 77.9338 28.8435 77.9338 30.7891H81.8106ZM82.6074 27.0944C83.1573 26.015 83.9377 25.1184 84.977 24.3909L82.7537 21.2149C81.2084 22.2966 79.9988 23.6743 79.153 25.3346L82.6074 27.0944ZM84.9457 24.4123C86.4002 23.436 88.5584 22.8417 91.619 22.8417V18.9649C88.1148 18.9649 85.104 19.6369 82.785 21.1934L84.9457 24.4123ZM88.9827 37.6123C90.5001 37.6123 91.5904 36.7098 92.2803 35.6366L89.0192 33.5402C88.8925 33.7373 88.8173 33.7841 88.8264 33.7782C88.8331 33.7738 88.8556 33.7608 88.8916 33.75C88.9279 33.739 88.9606 33.7355 88.9827 33.7355V37.6123ZM92.2538 35.6768C92.8875 34.7429 93.3535 33.6601 93.6818 32.4662L89.9438 31.4382C89.7035 32.3119 89.3942 32.9865 89.0458 33.5L92.2538 35.6768ZM93.685 32.4545C93.9943 31.3016 94.2186 30.123 94.3585 28.9195L90.5077 28.4718C90.3892 29.491 90.1999 30.4834 89.9406 31.4499L93.685 32.4545ZM94.3537 28.9576C94.5165 27.7641 94.6041 26.6902 94.6041 25.7493H90.7273C90.7273 26.4625 90.6599 27.3528 90.5125 28.4337L94.3537 28.9576ZM94.6041 25.7493C94.6041 24.9463 94.5269 24.0857 94.2148 23.3574L90.6514 24.8846C90.6415 24.8613 90.6653 24.9101 90.6886 25.0736C90.7111 25.2308 90.7273 25.452 90.7273 25.7493H94.6041ZM94.272 23.508C94.091 22.9649 93.7418 22.4327 93.1722 22.0612C92.6244 21.704 92.035 21.6011 91.5414 21.6011V25.4779C91.5131 25.4779 91.3049 25.4719 91.0544 25.3085C90.782 25.1308 90.646 24.8894 90.5942 24.734L94.272 23.508ZM91.5414 21.6011C90.0175 21.6011 88.88 22.4665 88.1236 23.5633L91.3151 25.7643C91.4615 25.5519 91.5591 25.4834 91.5804 25.4702C91.5895 25.4646 91.5853 25.4685 91.57 25.4729C91.5631 25.4748 91.5564 25.4762 91.5504 25.4771C91.5445 25.4779 91.5412 25.4779 91.5414 25.4779V21.6011ZM88.0979 23.6015C87.4861 24.5353 87.0141 25.6043 86.6609 26.7818L90.3742 27.8958C90.6412 27.0056 90.9704 26.2913 91.3407 25.7261L88.0979 23.6015ZM86.6609 26.7818C86.3225 27.9097 86.0693 29.0639 85.9008 30.2436L89.7386 30.7919C89.8802 29.8006 90.0923 28.8355 90.3742 27.8958L86.6609 26.7818ZM85.8949 30.2886C85.7615 31.4094 85.6874 32.3731 85.6874 33.154H89.5643C89.5643 32.5909 89.6195 31.7971 89.7445 30.7469L85.8949 30.2886ZM85.6874 33.154C85.6874 34.1045 85.8046 35.1202 86.2584 35.9629C86.5009 36.4133 86.8587 36.8488 87.3688 37.1646C87.8844 37.4837 88.4455 37.6123 88.9827 37.6123V33.7355C89.0677 33.7355 89.2331 33.7591 89.4094 33.8683C89.5803 33.974 89.6554 34.0945 89.6718 34.1249C89.6826 34.145 89.6505 34.0917 89.6186 33.914C89.5875 33.7407 89.5643 33.4925 89.5643 33.154H85.6874Z" fill="#192494"/>
</g>
<g filter="url(#filter1_d_9_2956)">
<path d="M31.8788 41.1521H46.568L46.0098 43.8039H38.857L37.4963 50.189H43.4627L42.9044 52.8756H36.938L34.705 63.3081H27.1685L31.8788 41.1521ZM45.9678 49.5958C47.1541 49.0143 48.3637 48.5956 49.5965 48.3397C50.8526 48.0606 52.2482 47.921 53.7834 47.921C55.2721 47.921 56.505 48.0373 57.4819 48.2699C58.4589 48.5026 59.2381 48.8398 59.8196 49.2818C60.4012 49.7238 60.8082 50.2471 61.0408 50.8519C61.2734 51.4567 61.3897 52.1429 61.3897 52.9105C61.3897 53.3525 61.3549 53.8293 61.2851 54.341C61.2386 54.8528 61.1804 55.2831 61.1106 55.632L59.4707 63.3081H53.8532L53.2252 61.0751H53.0158C52.2715 61.8892 51.3992 62.5172 50.399 62.9592C49.422 63.3779 48.4451 63.5872 47.4681 63.5872C46.9099 63.5872 46.3632 63.5058 45.8282 63.343C45.2932 63.1802 44.8164 62.9359 44.3977 62.6103C43.979 62.2614 43.6417 61.831 43.3858 61.3193C43.13 60.7843 43.002 60.1446 43.002 59.4003C43.002 58.1907 43.3277 57.237 43.979 56.5392C44.6535 55.8181 45.5258 55.2831 46.5958 54.9342C47.6891 54.562 48.9103 54.3294 50.2594 54.2364C51.6318 54.1433 53.0042 54.0968 54.3766 54.0968C54.4231 53.8642 54.4813 53.5385 54.551 53.1198C54.6208 52.6779 54.6557 52.2941 54.6557 51.9684C54.6557 51.5497 54.5394 51.1659 54.3068 50.817C54.0975 50.4448 53.6439 50.2588 52.946 50.2588C52.1319 50.2588 51.5271 50.503 51.1317 50.9915C50.7595 51.4567 50.5153 52.0266 50.399 52.7011H45.3049L45.9678 49.5958ZM53.9928 55.7367H53.3647C52.6902 55.7367 52.1087 55.8297 51.6202 56.0158C51.155 56.1786 50.7712 56.3996 50.4688 56.6788C50.1896 56.9579 49.9803 57.2719 49.8407 57.6208C49.7012 57.9697 49.6314 58.3186 49.6314 58.6676C49.6314 59.2258 49.7709 59.6445 50.0501 59.9236C50.3525 60.2028 50.7014 60.3423 51.0968 60.3423C51.5853 60.3423 52.0621 60.1679 52.5274 59.819C53.0158 59.4701 53.3182 59.0048 53.4345 58.4233L53.9928 55.7367ZM52.8414 46.2463L56.0863 41.1521H62.0876L55.842 46.2463H52.8414ZM78.1989 62.4707C77.222 62.8661 76.1868 63.1453 75.0936 63.3081C74.0236 63.4942 72.8024 63.5872 71.43 63.5872C70.2204 63.5872 69.1039 63.4709 68.0804 63.2383C67.0802 62.9825 66.2079 62.587 65.4636 62.052C64.7192 61.517 64.1377 60.8308 63.719 59.9934C63.3003 59.1328 63.091 58.0977 63.091 56.8881C63.091 55.632 63.3003 54.469 63.719 53.399C64.161 52.3057 64.8123 51.352 65.6729 50.5379C66.5568 49.7238 67.6734 49.0841 69.0225 48.6189C70.3716 48.1536 71.9766 47.921 73.8375 47.921C75.3495 47.921 76.6637 48.049 77.7802 48.3048C78.8967 48.5374 79.8155 49.0841 80.5366 49.9447L79.5597 54.4108H74.8145C74.8377 54.0154 74.861 53.6665 74.8842 53.3641C74.9075 53.0617 74.9191 52.7244 74.9191 52.3522C74.9191 51.6079 74.8377 51.0845 74.6749 50.7821C74.5121 50.4565 74.2446 50.2936 73.8724 50.2936C73.2211 50.2936 72.6512 50.6193 72.1627 51.2706C71.6742 51.8986 71.2672 52.6663 70.9415 53.5734C70.6391 54.4573 70.4065 55.3994 70.2437 56.3996C70.1041 57.3766 70.0343 58.214 70.0343 58.9118C70.0343 59.1677 70.046 59.4352 70.0692 59.7143C70.0925 59.9702 70.139 60.2144 70.2088 60.447C70.3018 60.6796 70.4181 60.8657 70.5577 61.0053C70.6973 61.1448 70.895 61.2146 71.1509 61.2146C71.3835 61.2146 71.651 61.1448 71.9534 61.0053C72.2558 60.8657 72.5465 60.6564 72.8256 60.3772C73.1048 60.0748 73.3723 59.691 73.6281 59.2258C73.884 58.7606 74.0817 58.2023 74.2213 57.551H79.2108L78.1989 62.4707ZM87.6365 63.3081H80.5535L83.7286 48.3048H90.8814L87.6365 63.3081ZM91.7885 43.7341C91.7885 44.2691 91.6722 44.7343 91.4396 45.1297C91.2303 45.5252 90.9395 45.8624 90.5673 46.1416C90.2184 46.4207 89.8114 46.6301 89.3461 46.7696C88.8809 46.9092 88.4041 46.979 87.9156 46.979C86.9852 46.979 86.2059 46.758 85.5779 46.316C84.9498 45.8741 84.6358 45.1763 84.6358 44.2226C84.6358 43.7108 84.7405 43.2572 84.9498 42.8618C85.1592 42.4431 85.4383 42.1058 85.7872 41.8499C86.1594 41.5708 86.5781 41.3615 87.0433 41.2219C87.5318 41.0823 88.0319 41.0126 88.5436 41.0126C89.4508 41.0126 90.2184 41.2335 90.8465 41.6755C91.4745 42.1174 91.7885 42.8036 91.7885 43.7341ZM97.8934 63.3081H90.7756L95.7302 39.8611H102.883L97.8934 63.3081ZM105.675 61.4317C105.675 61.7587 105.604 62.0501 105.462 62.3059C105.334 62.5618 105.156 62.775 104.929 62.9456C104.716 63.1162 104.467 63.2441 104.182 63.3294C103.898 63.4289 103.6 63.4787 103.287 63.4787C102.747 63.4787 102.285 63.3365 101.901 63.0522C101.531 62.7537 101.347 62.2917 101.347 61.6663C101.347 61.3393 101.411 61.0479 101.538 60.7921C101.666 60.5362 101.837 60.323 102.05 60.1524C102.263 59.9818 102.505 59.8539 102.775 59.7686C103.059 59.6691 103.351 59.6193 103.649 59.6193C104.232 59.6193 104.716 59.7686 105.099 60.0671C105.483 60.3514 105.675 60.8063 105.675 61.4317ZM110.439 63.3081H106.985L110.012 48.9794H114.383L112.997 55.5041H113.147C113.616 54.9639 114.142 54.5801 114.725 54.3527C115.322 54.111 115.912 53.9902 116.494 53.9902C116.992 53.9902 117.404 54.0684 117.731 54.2247C118.072 54.3669 118.342 54.5659 118.541 54.8218C118.74 55.0776 118.882 55.3833 118.968 55.7386C119.053 56.094 119.096 56.4707 119.096 56.8687C119.096 57.0677 119.081 57.3662 119.053 57.7643C119.025 58.1623 118.961 58.6101 118.861 59.1076C118.762 59.5909 118.619 60.0955 118.435 60.6215C118.25 61.1332 118.001 61.6023 117.688 62.0288C117.39 62.4552 117.006 62.8035 116.537 63.0736C116.082 63.3436 115.535 63.4787 114.895 63.4787C114.511 63.4787 114.135 63.436 113.765 63.3508C113.41 63.2655 113.083 63.1517 112.784 63.0096C112.5 62.8674 112.244 62.704 112.017 62.5192C111.803 62.3202 111.647 62.1212 111.548 61.9221H111.398L110.439 63.3081ZM112.848 61.4104C113.189 61.4104 113.474 61.2327 113.701 60.8773C113.929 60.5078 114.113 60.0813 114.255 59.598C114.398 59.1005 114.497 58.6101 114.554 58.1267C114.625 57.6292 114.661 57.2596 114.661 57.018C114.661 56.7337 114.611 56.4991 114.511 56.3143C114.426 56.1295 114.263 56.0371 114.021 56.0371C113.737 56.0371 113.474 56.1438 113.232 56.357C112.99 56.556 112.813 56.7266 112.699 56.8687L111.867 60.6854C111.967 60.856 112.095 61.0195 112.251 61.1759C112.422 61.3322 112.621 61.4104 112.848 61.4104ZM124.319 59.0223C124.262 59.335 124.219 59.6335 124.191 59.9178C124.177 60.2021 124.17 60.458 124.17 60.6854C124.17 60.8134 124.177 60.9555 124.191 61.1119C124.205 61.2683 124.234 61.4175 124.276 61.5597C124.333 61.6876 124.404 61.8013 124.489 61.9008C124.589 61.9861 124.724 62.0288 124.895 62.0288C125.023 62.0288 125.165 61.9861 125.321 61.9008C125.492 61.8155 125.655 61.6947 125.811 61.5383C125.982 61.382 126.138 61.1901 126.281 60.9626C126.437 60.7352 126.558 60.4793 126.643 60.195H130.14L129.586 62.4765C129.301 62.6613 128.974 62.8177 128.605 62.9456C128.235 63.0736 127.844 63.1802 127.432 63.2655C127.02 63.3365 126.6 63.3863 126.174 63.4147C125.747 63.4574 125.342 63.4787 124.959 63.4787C124.248 63.4787 123.587 63.4147 122.976 63.2868C122.364 63.1588 121.831 62.9385 121.376 62.6258C120.921 62.3131 120.559 61.9008 120.289 61.3891C120.033 60.8631 119.905 60.2163 119.905 59.4487C119.905 58.7522 120.012 58.0699 120.225 57.4018C120.452 56.7337 120.822 56.1438 121.334 55.632C121.86 55.1061 122.556 54.6867 123.423 54.374C124.305 54.0613 125.399 53.9049 126.707 53.9049C128.128 53.9049 129.195 54.1252 129.905 54.5659C130.63 55.0066 130.993 55.696 130.993 56.6342C130.993 57.018 130.936 57.4373 130.822 57.8922C130.708 58.3329 130.538 58.7096 130.31 59.0223H124.319ZM127.155 56.4849C127.155 56.0443 127.084 55.7457 126.942 55.5894C126.799 55.433 126.629 55.3548 126.43 55.3548C126.202 55.3548 125.989 55.433 125.79 55.5894C125.605 55.7315 125.435 55.9305 125.278 56.1864C125.122 56.4281 124.98 56.7124 124.852 57.0393C124.724 57.352 124.617 57.6861 124.532 58.0415H126.963C126.991 57.8709 127.02 57.6932 127.048 57.5084C127.077 57.352 127.098 57.1814 127.112 56.9967C127.141 56.8119 127.155 56.6413 127.155 56.4849ZM132.208 54.1394C132.734 54.0257 133.196 53.8978 133.594 53.7556C133.992 53.6135 134.354 53.4358 134.681 53.2226C135.023 53.0094 135.342 52.7464 135.641 52.4336C135.954 52.1209 136.288 51.7371 136.643 51.2822H138.839L138.221 54.1394H139.884L139.607 55.568H137.922L137.048 59.7259C136.977 60.0529 136.92 60.3443 136.878 60.6002C136.835 60.856 136.814 61.055 136.814 61.1972C136.814 61.4815 136.913 61.6592 137.112 61.7302C137.325 61.8013 137.716 61.8369 138.285 61.8369L137.965 63.3081C137.866 63.3365 137.709 63.3579 137.496 63.3721C137.297 63.3863 137.07 63.4005 136.814 63.4147C136.572 63.4431 136.316 63.4574 136.046 63.4574C135.79 63.4716 135.563 63.4787 135.364 63.4787C135.008 63.4787 134.66 63.4503 134.319 63.3934C133.978 63.3508 133.672 63.2584 133.402 63.1162C133.132 62.9598 132.912 62.7395 132.741 62.4552C132.585 62.1709 132.507 61.7871 132.507 61.3038C132.507 61.1332 132.514 60.92 132.528 60.6641C132.556 60.4082 132.606 60.1239 132.677 59.8112L133.573 55.568H131.909L132.208 54.1394Z" fill="white"/>
<path d="M31.8788 41.1521V39.2137H30.3092L29.9828 40.749L31.8788 41.1521ZM46.568 41.1521L48.4649 41.5515L48.957 39.2137H46.568V41.1521ZM46.0098 43.8039V45.7423H47.5826L47.9066 44.2032L46.0098 43.8039ZM38.857 43.8039V41.8655H37.2882L36.9612 43.3998L38.857 43.8039ZM37.4963 50.189L35.6005 49.7849L35.1012 52.1274H37.4963V50.189ZM43.4627 50.189L45.3606 50.5833L45.8453 48.2506H43.4627V50.189ZM42.9044 52.8756V54.814H44.4815L44.8023 53.27L42.9044 52.8756ZM36.938 52.8756V50.9372H35.3706L35.0426 52.4699L36.938 52.8756ZM34.705 63.3081V65.2465H36.2724L36.6005 63.7138L34.705 63.3081ZM27.1685 63.3081L25.2724 62.905L24.7746 65.2465H27.1685V63.3081ZM31.8788 43.0905H46.568V39.2137H31.8788V43.0905ZM44.6712 40.7528L44.1129 43.4045L47.9066 44.2032L48.4649 41.5515L44.6712 40.7528ZM46.0098 41.8655H38.857V45.7423H46.0098V41.8655ZM36.9612 43.3998L35.6005 49.7849L39.3921 50.593L40.7529 44.2079L36.9612 43.3998ZM37.4963 52.1274H43.4627V48.2506H37.4963V52.1274ZM41.5648 49.7946L41.0066 52.4812L44.8023 53.27L45.3606 50.5833L41.5648 49.7946ZM42.9044 50.9372H36.938V54.814H42.9044V50.9372ZM35.0426 52.4699L32.8095 62.9024L36.6005 63.7138L38.8335 53.2813L35.0426 52.4699ZM34.705 61.3697H27.1685V65.2465H34.705V61.3697ZM29.0645 63.7112L33.7748 41.5552L29.9828 40.749L25.2724 62.905L29.0645 63.7112ZM45.9678 49.5958L45.1146 47.8553L44.2688 48.2699L44.0721 49.1911L45.9678 49.5958ZM49.5965 48.3397L49.9904 50.2377L50.0037 50.2349L50.017 50.232L49.5965 48.3397ZM57.4819 48.2699L57.0329 50.1556L57.0329 50.1556L57.4819 48.2699ZM59.8196 49.2818L58.6467 50.8251L58.6467 50.8251L59.8196 49.2818ZM61.2851 54.341L59.3644 54.0791L59.3586 54.1222L59.3546 54.1655L61.2851 54.341ZM61.1106 55.632L63.0062 56.037L63.0089 56.0246L63.0114 56.0122L61.1106 55.632ZM59.4707 63.3081V65.2465H61.0388L61.3664 63.7131L59.4707 63.3081ZM53.8532 63.3081L51.9872 63.8329L52.3848 65.2465H53.8532V63.3081ZM53.2252 61.0751L55.0912 60.5502L54.6936 59.1367H53.2252V61.0751ZM53.0158 61.0751V59.1367H52.1616L51.5852 59.7671L53.0158 61.0751ZM50.399 62.9592L51.1626 64.7409L51.1725 64.7366L51.1824 64.7322L50.399 62.9592ZM45.8282 63.343L46.3926 61.4886L45.8282 63.343ZM44.3977 62.6103L43.1567 64.0994L43.1818 64.1203L43.2076 64.1404L44.3977 62.6103ZM43.3858 61.3193L41.6371 62.1556L41.6445 62.171L41.6521 62.1862L43.3858 61.3193ZM43.979 56.5392L42.5634 55.215L42.5619 55.2166L43.979 56.5392ZM46.5958 54.9342L47.1968 56.7771L47.2087 56.7732L47.2205 56.7692L46.5958 54.9342ZM50.2594 54.2364L50.1283 52.3024L50.1261 52.3026L50.2594 54.2364ZM54.3766 54.0968V56.0352H55.9657L56.2774 54.477L54.3766 54.0968ZM54.551 53.1198L56.4631 53.4385L56.4644 53.4303L56.4657 53.4222L54.551 53.1198ZM54.3068 50.817L52.6173 51.7673L52.6533 51.8312L52.694 51.8922L54.3068 50.817ZM51.1317 50.9915L49.6251 49.7718L49.6181 49.7806L51.1317 50.9915ZM50.399 52.7011V54.6396H52.0318L52.3092 53.0305L50.399 52.7011ZM45.3049 52.7011L43.4092 52.2964L42.9089 54.6396H45.3049V52.7011ZM53.9928 55.7367L55.8907 56.1311L56.3754 53.7983H53.9928V55.7367ZM51.6202 56.0158L52.2605 57.8454L52.2855 57.8367L52.3102 57.8272L51.6202 56.0158ZM50.4688 56.6788L49.154 55.2544L49.1255 55.2807L49.0981 55.3081L50.4688 56.6788ZM49.8407 57.6208L51.6405 58.3407L51.6405 58.3407L49.8407 57.6208ZM50.0501 59.9236L48.6794 61.2943L48.7068 61.3217L48.7353 61.348L50.0501 59.9236ZM52.5274 59.819L51.4007 58.2416L51.3823 58.2547L51.3643 58.2682L52.5274 59.819ZM53.4345 58.4233L51.5367 58.029L51.5352 58.0361L51.5338 58.0432L53.4345 58.4233ZM52.8414 46.2463L51.2065 45.2048L49.3084 48.1847H52.8414V46.2463ZM56.0863 41.1521V39.2137H55.0227L54.4514 40.1107L56.0863 41.1521ZM62.0876 41.1521L63.3128 42.6542L67.5309 39.2137H62.0876V41.1521ZM55.842 46.2463V48.1847H56.5323L57.0672 47.7484L55.842 46.2463ZM46.821 51.3364C47.8686 50.8228 48.9243 50.459 49.9904 50.2377L49.2026 46.4418C47.803 46.7322 46.4396 47.2058 45.1146 47.8553L46.821 51.3364ZM50.017 50.232C51.1116 49.9887 52.3634 49.8594 53.7834 49.8594V45.9826C52.133 45.9826 50.5936 46.1325 49.176 46.4475L50.017 50.232ZM53.7834 49.8594C55.1861 49.8594 56.2552 49.9705 57.0329 50.1556L57.9309 46.3843C56.7547 46.1042 55.3582 45.9826 53.7834 45.9826V49.8594ZM57.0329 50.1556C57.8397 50.3477 58.3446 50.5954 58.6467 50.8251L60.9925 47.7385C60.1316 47.0842 59.078 46.6574 57.9309 46.3843L57.0329 50.1556ZM58.6467 50.8251C58.979 51.0776 59.1442 51.3204 59.2316 51.5478L62.85 50.1561C62.4723 49.1738 61.8233 48.3699 60.9925 47.7385L58.6467 50.8251ZM59.2316 51.5478C59.3647 51.8936 59.4513 52.3378 59.4513 52.9105H63.3282C63.3282 51.948 63.1822 51.0198 62.85 50.1561L59.2316 51.5478ZM59.4513 52.9105C59.4513 53.2517 59.4243 53.6401 59.3644 54.0791L63.2057 54.6029C63.2854 54.0185 63.3282 53.4532 63.3282 52.9105H59.4513ZM59.3546 54.1655C59.3119 54.6359 59.2616 54.993 59.2099 55.2519L63.0114 56.0122C63.0992 55.5732 63.1652 55.0697 63.2155 54.5165L59.3546 54.1655ZM59.215 55.227L57.5751 62.9031L61.3664 63.7131L63.0062 56.037L59.215 55.227ZM59.4707 61.3697H53.8532V65.2465H59.4707V61.3697ZM55.7192 62.7833L55.0912 60.5502L51.3592 61.5999L51.9872 63.8329L55.7192 62.7833ZM53.2252 59.1367H53.0158V63.0135H53.2252V59.1367ZM51.5852 59.7671C51.0204 60.3848 50.3679 60.8537 49.6155 61.1862L51.1824 64.7322C52.4305 64.1808 53.5225 63.3935 54.4464 62.383L51.5852 59.7671ZM49.6354 61.1775C48.8783 61.502 48.1602 61.6488 47.4681 61.6488V65.5256C48.7299 65.5256 49.9657 65.2538 51.1626 64.7409L49.6354 61.1775ZM47.4681 61.6488C47.1014 61.6488 46.745 61.5958 46.3926 61.4886L45.2638 65.1974C45.9815 65.4158 46.7183 65.5256 47.4681 65.5256V61.6488ZM46.3926 61.4886C46.0718 61.3909 45.8094 61.2526 45.5877 61.0802L43.2076 64.1404C43.8233 64.6192 44.5147 64.9694 45.2638 65.1974L46.3926 61.4886ZM45.6386 61.1212C45.4355 60.9519 45.2619 60.7371 45.1196 60.4524L41.6521 62.1862C42.0215 62.925 42.5224 63.5708 43.1567 64.0994L45.6386 61.1212ZM45.1345 60.483C45.0312 60.2669 44.9404 59.927 44.9404 59.4003H41.0636C41.0636 60.3622 41.2287 61.3017 41.6371 62.1556L45.1345 60.483ZM44.9404 59.4003C44.9404 58.5452 45.1625 58.112 45.3961 57.8618L42.5619 55.2166C41.4928 56.362 41.0636 57.8362 41.0636 59.4003H44.9404ZM45.3945 57.8634C45.816 57.4129 46.3937 57.039 47.1968 56.7771L45.9949 53.0913C44.658 53.5272 43.491 54.2234 42.5634 55.215L45.3945 57.8634ZM47.2205 56.7692C48.1306 56.4594 49.1833 56.2536 50.3928 56.1702L50.1261 52.3026C48.6373 52.4052 47.2476 52.6647 45.9712 53.0992L47.2205 56.7692ZM50.3905 56.1703C51.7194 56.0802 53.048 56.0352 54.3766 56.0352V52.1584C52.9604 52.1584 51.5442 52.2064 50.1283 52.3024L50.3905 56.1703ZM56.2774 54.477C56.33 54.214 56.3921 53.8645 56.4631 53.4385L52.639 52.8012C52.5704 53.2126 52.5163 53.5144 52.4758 53.7166L56.2774 54.477ZM56.4657 53.4222C56.5459 52.9143 56.5941 52.4248 56.5941 51.9684H52.7173C52.7173 52.1633 52.6957 52.4414 52.6364 52.8175L56.4657 53.4222ZM56.5941 51.9684C56.5941 51.1664 56.3642 50.4086 55.9197 49.7418L52.694 51.8922C52.7096 51.9157 52.7129 51.9269 52.7134 51.9287C52.7139 51.9304 52.7173 51.9411 52.7173 51.9684H56.5941ZM55.9963 49.8667C55.2635 48.5639 53.8767 48.3203 52.946 48.3203V52.1972C53.1412 52.1972 53.1571 52.2258 53.0739 52.1917C53.0253 52.1718 52.9451 52.131 52.8554 52.0555C52.7633 51.9779 52.6806 51.8798 52.6173 51.7673L55.9963 49.8667ZM52.946 48.3203C51.7338 48.3203 50.4919 48.7011 49.6251 49.7718L52.6383 52.2111C52.6336 52.217 52.6246 52.2262 52.613 52.2346C52.6018 52.2428 52.5978 52.2433 52.6077 52.2393C52.63 52.2303 52.7282 52.1972 52.946 52.1972V48.3203ZM49.6181 49.7806C49.0126 50.5373 48.6523 51.4232 48.4888 52.3718L52.3092 53.0305C52.3783 52.63 52.5064 52.3761 52.6453 52.2024L49.6181 49.7806ZM50.399 50.7627H45.3049V54.6396H50.399V50.7627ZM47.2005 53.1058L47.8635 50.0005L44.0721 49.1911L43.4092 52.2964L47.2005 53.1058ZM53.9928 53.7983H53.3647V57.6751H53.9928V53.7983ZM53.3647 53.7983C52.5196 53.7983 51.6926 53.9139 50.9301 54.2044L52.3102 57.8272C52.5247 57.7455 52.8608 57.6751 53.3647 57.6751V53.7983ZM50.9798 54.1862C50.313 54.4196 49.6857 54.7636 49.154 55.2544L51.7835 58.1031C51.8567 58.0356 51.9969 57.9377 52.2605 57.8454L50.9798 54.1862ZM49.0981 55.3081C48.6429 55.7633 48.2829 56.296 48.041 56.9009L51.6405 58.3407C51.6777 58.2478 51.7364 58.1525 51.8394 58.0494L49.0981 55.3081ZM48.041 56.9009C47.8169 57.461 47.693 58.0536 47.693 58.6676H51.5698C51.5698 58.5837 51.5854 58.4785 51.6405 58.3407L48.041 56.9009ZM47.693 58.6676C47.693 59.5246 47.9085 60.5234 48.6794 61.2943L51.4207 58.553C51.4664 58.5987 51.5024 58.6464 51.5291 58.6908C51.5553 58.7346 51.5689 58.769 51.575 58.7873C51.5859 58.82 51.5698 58.7909 51.5698 58.6676H47.693ZM48.7353 61.348C49.3797 61.9428 50.1927 62.2808 51.0968 62.2808V58.4039C51.1326 58.4039 51.1921 58.4114 51.2585 58.4379C51.3235 58.4639 51.3589 58.4938 51.3649 58.4993L48.7353 61.348ZM51.0968 62.2808C52.0802 62.2808 52.9555 61.9208 53.6904 61.3697L51.3643 58.2682C51.2617 58.3452 51.1916 58.3776 51.1548 58.3911C51.1212 58.4034 51.1049 58.4039 51.0968 58.4039V62.2808ZM53.654 61.3963C54.5378 60.7651 55.1211 59.8744 55.3353 58.8035L51.5338 58.0432C51.5153 58.1353 51.4939 58.1751 51.4007 58.2416L53.654 61.3963ZM55.3324 58.8177L55.8907 56.1311L52.0949 55.3423L51.5367 58.029L55.3324 58.8177ZM54.4763 47.2877L57.7212 42.1935L54.4514 40.1107L51.2065 45.2048L54.4763 47.2877ZM56.0863 43.0905H62.0876V39.2137H56.0863V43.0905ZM60.8624 39.65L54.6168 44.7441L57.0672 47.7484L63.3128 42.6542L60.8624 39.65ZM55.842 44.3078H52.8414V48.1847H55.842V44.3078ZM78.1989 62.4707L78.9262 64.2675L79.8884 63.878L80.0976 62.8612L78.1989 62.4707ZM75.0936 63.3081L74.808 61.3908L74.7847 61.3943L74.7615 61.3984L75.0936 63.3081ZM68.0804 63.2383L67.6 65.1163L67.6254 65.1227L67.6508 65.1285L68.0804 63.2383ZM65.4636 62.052L64.3323 63.626L64.3323 63.626L65.4636 62.052ZM63.719 59.9934L61.9759 60.8414L61.9805 60.8509L61.9853 60.8603L63.719 59.9934ZM63.719 53.399L61.9219 52.6725L61.9178 52.6825L61.9139 52.6926L63.719 53.399ZM65.6729 50.5379L64.3597 49.1121L64.3502 49.1208L64.3409 49.1297L65.6729 50.5379ZM69.0225 48.6189L68.3906 46.7863L68.3906 46.7863L69.0225 48.6189ZM77.7802 48.3048L77.3472 50.1943L77.366 50.1986L77.3849 50.2025L77.7802 48.3048ZM80.5366 49.9447L82.4303 50.359L82.6336 49.4293L82.0225 48.6998L80.5366 49.9447ZM79.5597 54.4108V56.3492H81.1199L81.4533 54.8251L79.5597 54.4108ZM74.8145 54.4108L72.8794 54.297L72.7587 56.3492H74.8145V54.4108ZM74.8842 53.3641L72.9515 53.2154L72.9515 53.2154L74.8842 53.3641ZM74.6749 50.7821L72.9411 51.649L72.9543 51.6753L72.9682 51.7011L74.6749 50.7821ZM72.1627 51.2706L73.6928 52.4607L73.7032 52.4472L73.7134 52.4336L72.1627 51.2706ZM70.9415 53.5734L69.1171 52.9185L69.1122 52.9322L69.1075 52.946L70.9415 53.5734ZM70.2437 56.3996L68.3305 56.0882L68.3274 56.1068L68.3248 56.1255L70.2437 56.3996ZM70.0692 59.7143L68.1375 59.8753L68.1381 59.8825L68.1388 59.8898L70.0692 59.7143ZM70.2088 60.447L68.3521 61.004L68.377 61.0867L68.409 61.1669L70.2088 60.447ZM70.5577 61.0053L69.1871 62.3759L69.1871 62.3759L70.5577 61.0053ZM71.9534 61.0053L72.7657 62.7653L72.7657 62.7653L71.9534 61.0053ZM72.8256 60.3772L74.1963 61.7479L74.2237 61.7205L74.25 61.692L72.8256 60.3772ZM73.6281 59.2258L75.3266 60.16L75.3266 60.16L73.6281 59.2258ZM74.2213 57.551V55.6126H72.6543L72.3259 57.1449L74.2213 57.551ZM79.2108 57.551L81.1094 57.9415L81.5884 55.6126H79.2108V57.551ZM77.4716 60.6739C76.6434 61.0092 75.7572 61.2495 74.808 61.3908L75.3791 65.2254C76.6165 65.0411 77.8005 64.7231 78.9262 64.2675L77.4716 60.6739ZM74.7615 61.3984C73.8253 61.5612 72.7187 61.6488 71.43 61.6488V65.5256C72.8861 65.5256 74.2218 65.4272 75.4257 65.2178L74.7615 61.3984ZM71.43 61.6488C70.3436 61.6488 69.3731 61.5443 68.51 61.3481L67.6508 65.1285C68.8347 65.3976 70.0973 65.5256 71.43 65.5256V61.6488ZM68.5608 61.3604C67.7652 61.1569 67.1199 60.8553 66.5949 60.478L64.3323 63.626C65.296 64.3187 66.3952 64.808 67.6 65.1163L68.5608 61.3604ZM66.5949 60.478C66.1113 60.1304 65.7341 59.6891 65.4528 59.1265L61.9853 60.8603C62.5414 61.9725 63.3271 62.9036 64.3323 63.626L66.5949 60.478ZM65.4621 59.1454C65.2013 58.6093 65.0294 57.8792 65.0294 56.8881H61.1526C61.1526 58.3162 61.3994 59.6563 61.9759 60.8414L65.4621 59.1454ZM65.0294 56.8881C65.0294 55.8511 65.2014 54.9301 65.5241 54.1053L61.9139 52.6926C61.3992 54.0078 61.1526 55.4129 61.1526 56.8881H65.0294ZM65.5161 54.1255C65.8533 53.2914 66.3455 52.5699 67.005 51.9461L64.3409 49.1297C63.279 50.1341 62.4686 51.32 61.9219 52.6725L65.5161 54.1255ZM66.9862 51.9637C67.6401 51.3613 68.5113 50.8455 69.6544 50.4514L68.3906 46.7863C66.8354 47.3226 65.4736 48.0862 64.3597 49.1121L66.9862 51.9637ZM69.6544 50.4514C70.7491 50.0739 72.1299 49.8594 73.8375 49.8594V45.9826C71.8233 45.9826 69.9942 46.2334 68.3906 46.7863L69.6544 50.4514ZM73.8375 49.8594C75.2471 49.8594 76.4096 49.9794 77.3472 50.1943L78.2132 46.4154C76.9178 46.1186 75.4518 45.9826 73.8375 45.9826V49.8594ZM77.3849 50.2025C78.0822 50.3478 78.6143 50.6686 79.0508 51.1896L82.0225 48.6998C81.0168 47.4996 79.7113 46.7271 78.1756 46.4072L77.3849 50.2025ZM78.643 49.5305L77.666 53.9966L81.4533 54.8251L82.4303 50.359L78.643 49.5305ZM79.5597 52.4724H74.8145V56.3492H79.5597V52.4724ZM76.7495 54.5246C76.7723 54.1375 76.7948 53.8007 76.8169 53.5127L72.9515 53.2154C72.9272 53.5323 72.9031 53.8932 72.8794 54.297L76.7495 54.5246ZM76.8169 53.5128C76.8447 53.1513 76.8575 52.7634 76.8575 52.3522H72.9807C72.9807 52.6854 72.9703 52.9721 72.9515 53.2154L76.8169 53.5128ZM76.8575 52.3522C76.8575 51.579 76.7919 50.6252 76.3816 49.8631L72.9682 51.7011C72.9321 51.6341 72.9212 51.5942 72.9229 51.6001C72.9242 51.6045 72.9327 51.6351 72.9427 51.6994C72.9633 51.8319 72.9807 52.0432 72.9807 52.3522H76.8575ZM76.4087 49.9152C76.1912 49.4804 75.8529 49.06 75.36 48.76C74.8696 48.4615 74.3464 48.3552 73.8724 48.3552V52.2321C73.7705 52.2321 73.5672 52.2072 73.3443 52.0715C73.1189 51.9343 72.9957 51.7582 72.9411 51.649L76.4087 49.9152ZM73.8724 48.3552C72.4596 48.3552 71.365 49.1035 70.612 50.1076L73.7134 52.4336C73.8359 52.2703 73.9112 52.2249 73.9182 52.2209C73.9211 52.2193 73.9138 52.2236 73.8986 52.2277C73.8918 52.2295 73.8854 52.2307 73.88 52.2314C73.8747 52.2321 73.872 52.2321 73.8724 52.2321V48.3552ZM70.6326 50.0805C69.995 50.9003 69.4978 51.8579 69.1171 52.9185L72.7659 54.2283C73.0365 53.4746 73.3534 52.897 73.6928 52.4607L70.6326 50.0805ZM69.1075 52.946C68.767 53.9411 68.5093 54.9895 68.3305 56.0882L72.1569 56.7111C72.3037 55.8093 72.5112 54.9736 72.7756 54.2009L69.1075 52.946ZM68.3248 56.1255C68.1771 57.1593 68.0959 58.0934 68.0959 58.9118H71.9728C71.9728 58.3346 72.0312 57.5939 72.1626 56.6738L68.3248 56.1255ZM68.0959 58.9118C68.0959 59.2262 68.1102 59.5476 68.1375 59.8753L72.0009 59.5533C71.9817 59.3228 71.9728 59.1092 71.9728 58.9118H68.0959ZM68.1388 59.8898C68.1731 60.2675 68.243 60.6401 68.3521 61.004L72.0655 59.89C72.0351 59.7887 72.0119 59.6728 71.9997 59.5388L68.1388 59.8898ZM68.409 61.1669C68.5743 61.5801 68.8191 62.008 69.1871 62.3759L71.9284 59.6346C72.0172 59.7234 72.0294 59.7792 72.0086 59.7271L68.409 61.1669ZM69.1871 62.3759C69.7889 62.9778 70.5399 63.153 71.1509 63.153V59.2762C71.1959 59.2762 71.3075 59.282 71.4558 59.3344C71.6125 59.3897 71.7808 59.4871 71.9284 59.6346L69.1871 62.3759ZM71.1509 63.153C71.7579 63.153 72.3105 62.9753 72.7657 62.7653L71.1411 59.2453C71.1081 59.2605 71.0828 59.2707 71.0647 59.2773C71.0466 59.284 71.0374 59.2865 71.0367 59.2867C71.0359 59.2869 71.0453 59.2843 71.064 59.2817C71.0828 59.2791 71.1122 59.2762 71.1509 59.2762V63.153ZM72.7657 62.7653C73.3102 62.514 73.7847 62.1595 74.1963 61.7479L71.455 59.0066C71.3083 59.1533 71.2013 59.2175 71.1411 59.2453L72.7657 62.7653ZM74.25 61.692C74.6611 61.2466 75.0157 60.7252 75.3266 60.16L71.9297 58.2917C71.7288 58.6568 71.5484 58.903 71.4013 59.0625L74.25 61.692ZM75.3266 60.16C75.6932 59.4935 75.9471 58.7484 76.1167 57.9572L72.3259 57.1449C72.2163 57.6563 72.0748 58.0277 71.9297 58.2917L75.3266 60.16ZM74.2213 59.4894H79.2108V55.6126H74.2213V59.4894ZM77.3121 57.1605L76.3002 62.0802L80.0976 62.8612L81.1094 57.9415L77.3121 57.1605ZM87.6365 63.3081V65.2465H89.2005L89.5311 63.7179L87.6365 63.3081ZM80.5535 63.3081L78.6571 62.9068L78.162 65.2465H80.5535V63.3081ZM83.7286 48.3048V46.3664H82.1575L81.8322 47.9035L83.7286 48.3048ZM90.8814 48.3048L92.776 48.7146L93.2838 46.3664H90.8814V48.3048ZM91.4396 45.1297L89.7688 44.1469L89.7468 44.1844L89.7265 44.2228L91.4396 45.1297ZM90.5673 46.1416L89.4043 44.5909L89.3801 44.609L89.3564 44.6279L90.5673 46.1416ZM89.3461 46.7696L88.7891 44.913L88.7891 44.913L89.3461 46.7696ZM85.5779 46.316L84.4623 47.9013L84.4623 47.9013L85.5779 46.316ZM84.9498 42.8618L86.663 43.7688L86.6735 43.7488L86.6836 43.7287L84.9498 42.8618ZM85.7872 41.8499L86.9335 43.4131L86.9419 43.4069L86.9503 43.4007L85.7872 41.8499ZM87.0433 41.2219L86.5108 39.3581L86.4985 39.3616L86.4863 39.3652L87.0433 41.2219ZM90.8465 41.6755L89.7309 43.2607L89.7309 43.2607L90.8465 41.6755ZM87.6365 61.3697H80.5535V65.2465H87.6365V61.3697ZM82.4499 63.7094L85.625 48.7062L81.8322 47.9035L78.6571 62.9068L82.4499 63.7094ZM83.7286 50.2432H90.8814V46.3664H83.7286V50.2432ZM88.9868 47.8951L85.7419 62.8983L89.5311 63.7179L92.776 48.7146L88.9868 47.8951ZM89.8501 43.7341C89.8501 43.9816 89.7989 44.0957 89.7688 44.1469L93.1104 46.1125C93.5455 45.3729 93.7269 44.5566 93.7269 43.7341H89.8501ZM89.7265 44.2228C89.6562 44.3556 89.5572 44.4762 89.4043 44.5909L91.7304 47.6923C92.3218 47.2487 92.8044 46.6947 93.1528 46.0367L89.7265 44.2228ZM89.3564 44.6279C89.2178 44.7389 89.0372 44.8385 88.7891 44.913L89.9031 48.6263C90.5855 48.4216 91.2191 48.1026 91.7782 47.6552L89.3564 44.6279ZM88.7891 44.913C88.5057 44.998 88.2165 45.0406 87.9156 45.0406V48.9174C88.5916 48.9174 89.2562 48.8204 89.9031 48.6263L88.7891 44.913ZM87.9156 45.0406C87.2985 45.0406 86.931 44.898 86.6934 44.7308L84.4623 47.9013C85.4809 48.618 86.6718 48.9174 87.9156 48.9174V45.0406ZM86.6934 44.7308C86.6626 44.7091 86.6528 44.6965 86.639 44.6657C86.6187 44.6205 86.5742 44.4908 86.5742 44.2226H82.6974C82.6974 45.6355 83.1924 47.0076 84.4623 47.9013L86.6934 44.7308ZM86.5742 44.2226C86.5742 43.9812 86.6216 43.8469 86.663 43.7688L83.2367 41.9548C82.8594 42.6676 82.6974 43.4405 82.6974 44.2226H86.5742ZM86.6836 43.7287C86.7667 43.5624 86.853 43.4722 86.9335 43.4131L84.6409 40.2868C84.0237 40.7395 83.5516 41.3238 83.2161 41.9949L86.6836 43.7287ZM86.9503 43.4007C87.132 43.2643 87.3438 43.1555 87.6003 43.0786L86.4863 39.3652C85.8124 39.5674 85.1868 39.8773 84.6242 40.2992L86.9503 43.4007ZM87.5758 43.0857C87.8899 42.996 88.2107 42.951 88.5436 42.951V39.0741C87.8531 39.0741 87.1737 39.1687 86.5108 39.3581L87.5758 43.0857ZM88.5436 42.951C89.1257 42.951 89.4854 43.0879 89.7309 43.2607L91.962 40.0903C90.9515 39.3791 89.7759 39.0741 88.5436 39.0741V42.951ZM89.7309 43.2607C89.7693 43.2877 89.7789 43.3031 89.7904 43.3282C89.8079 43.3664 89.8501 43.484 89.8501 43.7341H93.7269C93.7269 42.3241 93.2184 40.9744 91.962 40.0903L89.7309 43.2607ZM97.8934 63.3081V65.2465H99.4627L99.7894 63.7116L97.8934 63.3081ZM90.7756 63.3081L88.8791 62.9074L88.3848 65.2465H90.7756V63.3081ZM95.7302 39.8611V37.9227H94.1586L93.8336 39.4604L95.7302 39.8611ZM102.883 39.8611L104.779 40.2646L105.277 37.9227H102.883V39.8611ZM97.8934 61.3697H90.7756V65.2465H97.8934V61.3697ZM92.6721 63.7089L97.6267 40.2619L93.8336 39.4604L88.8791 62.9074L92.6721 63.7089ZM95.7302 41.7995H102.883V37.9227H95.7302V41.7995ZM100.987 39.4577L95.9975 62.9047L99.7894 63.7116L104.779 40.2646L100.987 39.4577ZM105.462 62.3059L103.767 61.3646L103.747 61.4014L103.728 61.4391L105.462 62.3059ZM104.929 62.9456L103.766 61.3949L103.741 61.4131L103.718 61.432L104.929 62.9456ZM104.182 63.3294L103.625 61.4728L103.583 61.4854L103.542 61.4998L104.182 63.3294ZM101.901 63.0522L100.683 64.5602L100.715 64.5857L100.747 64.6099L101.901 63.0522ZM101.538 60.7921L99.8047 59.9252L99.8047 59.9252L101.538 60.7921ZM102.05 60.1524L103.261 61.666L103.261 61.666L102.05 60.1524ZM102.775 59.7686L103.359 61.617L103.387 61.608L103.416 61.5982L102.775 59.7686ZM105.099 60.0671L103.909 61.5972L103.927 61.6112L103.946 61.6247L105.099 60.0671ZM103.737 61.4317C103.737 61.4542 103.734 61.4536 103.739 61.4362C103.743 61.4177 103.752 61.3919 103.767 61.3646L107.156 63.2473C107.476 62.671 107.613 62.0488 107.613 61.4317H103.737ZM103.728 61.4391C103.729 61.4374 103.734 61.4285 103.743 61.4168C103.753 61.4051 103.762 61.3977 103.766 61.3949L106.092 64.4963C106.562 64.144 106.934 63.6961 107.196 63.1728L103.728 61.4391ZM103.718 61.432C103.715 61.4344 103.693 61.4526 103.625 61.4728L104.739 65.1861C105.241 65.0357 105.716 64.7981 106.14 64.4593L103.718 61.432ZM103.542 61.4998C103.471 61.5246 103.39 61.5403 103.287 61.5403V65.4171C103.809 65.4171 104.325 65.3333 104.823 65.159L103.542 61.4998ZM103.287 61.5403C103.105 61.5403 103.062 61.4998 103.055 61.4946L100.747 64.6099C101.508 65.1733 102.388 65.4171 103.287 65.4171V61.5403ZM103.119 61.5443C103.157 61.5749 103.193 61.6129 103.225 61.6558C103.256 61.6984 103.275 61.7362 103.285 61.762C103.304 61.8105 103.285 61.7934 103.285 61.6663H99.4082C99.4082 62.6781 99.7225 63.7844 100.683 64.5602L103.119 61.5443ZM103.285 61.6663C103.285 61.6294 103.289 61.615 103.288 61.6181C103.288 61.6196 103.286 61.6244 103.284 61.632C103.281 61.6397 103.277 61.6488 103.272 61.6589L99.8047 59.9252C99.5241 60.4863 99.4082 61.0816 99.4082 61.6663H103.285ZM103.272 61.6589C103.275 61.6528 103.277 61.6497 103.278 61.6488C103.278 61.648 103.278 61.649 103.276 61.6511C103.274 61.6533 103.272 61.6561 103.269 61.659C103.266 61.6619 103.263 61.6643 103.261 61.666L100.839 58.6387C100.397 58.9929 100.052 59.4307 99.8047 59.9252L103.272 61.6589ZM103.261 61.666C103.281 61.6503 103.308 61.633 103.359 61.617L102.191 57.9201C101.702 58.0747 101.246 58.3133 100.839 58.6387L103.261 61.666ZM103.416 61.5982C103.496 61.57 103.571 61.5577 103.649 61.5577V57.6809C103.131 57.6809 102.623 57.7681 102.135 57.939L103.416 61.5982ZM103.649 61.5577C103.776 61.5577 103.846 61.5739 103.877 61.5834C103.892 61.5881 103.9 61.592 103.903 61.5935C103.906 61.595 103.908 61.596 103.909 61.5972L106.289 58.537C105.502 57.9242 104.575 57.6809 103.649 57.6809V61.5577ZM103.946 61.6247C103.903 61.5933 103.86 61.5523 103.822 61.5034C103.784 61.4548 103.76 61.4093 103.745 61.3749C103.718 61.3095 103.737 61.3113 103.737 61.4317H107.613C107.613 60.4 107.277 59.2676 106.253 58.5095L103.946 61.6247ZM110.439 63.3081V65.2465H111.454L112.033 64.4115L110.439 63.3081ZM106.985 63.3081L105.088 62.9074L104.594 65.2465H106.985V63.3081ZM110.012 48.9794V47.041H108.441L108.116 48.5787L110.012 48.9794ZM114.383 48.9794L116.28 49.3822L116.777 47.041H114.383V48.9794ZM112.997 55.5041L111.101 55.1013L110.604 57.4425H112.997V55.5041ZM113.147 55.5041V57.4425H114.031L114.61 56.7751L113.147 55.5041ZM114.725 54.3527L115.429 56.1584L115.441 56.154L115.452 56.1495L114.725 54.3527ZM117.731 54.2247L116.895 55.9734L116.94 55.9949L116.986 56.014L117.731 54.2247ZM118.541 54.8218L120.071 53.6317L120.071 53.6317L118.541 54.8218ZM118.968 55.7386L120.853 55.2863L120.853 55.2863L118.968 55.7386ZM119.053 57.7643L120.987 57.9024L120.987 57.9024L119.053 57.7643ZM118.861 59.1076L120.76 59.4985L120.762 59.4877L118.861 59.1076ZM118.435 60.6215L120.258 61.2798L120.261 61.2719L120.264 61.264L118.435 60.6215ZM117.688 62.0288L116.125 60.8825L116.113 60.8997L116.1 60.9172L117.688 62.0288ZM116.537 63.0736L115.57 61.3937L115.559 61.4002L115.547 61.4068L116.537 63.0736ZM113.765 63.3508L113.313 65.2356L113.321 65.2376L113.329 65.2395L113.765 63.3508ZM112.784 63.0096L111.917 64.7434L111.934 64.7517L111.951 64.7597L112.784 63.0096ZM112.017 62.5192L110.694 63.9363L110.743 63.9816L110.794 64.0236L112.017 62.5192ZM111.548 61.9221L113.281 61.0553L112.746 59.9837H111.548V61.9221ZM111.398 61.9221V59.9837H110.383L109.805 60.8188L111.398 61.9221ZM113.701 60.8773L115.334 61.9222L115.343 61.9078L115.352 61.8933L113.701 60.8773ZM114.255 59.598L116.115 60.1449L116.117 60.1377L116.119 60.1305L114.255 59.598ZM114.554 58.1267L112.635 57.8526L112.632 57.8764L112.629 57.9003L114.554 58.1267ZM114.511 56.3143L112.751 57.1266L112.776 57.1808L112.805 57.2333L114.511 56.3143ZM113.232 56.357L114.464 57.8533L114.49 57.8323L114.515 57.8105L113.232 56.357ZM112.699 56.8687L111.185 55.6578L110.902 56.0124L110.805 56.4561L112.699 56.8687ZM111.867 60.6854L109.973 60.2728L109.813 61.0102L110.193 61.6621L111.867 60.6854ZM112.251 61.1759L110.881 62.5465L110.91 62.5763L110.941 62.6048L112.251 61.1759ZM110.439 61.3697H106.985V65.2465H110.439V61.3697ZM108.881 63.7089L111.909 49.3802L108.116 48.5787L105.088 62.9074L108.881 63.7089ZM110.012 50.9178H114.383V47.041H110.012V50.9178ZM112.487 48.5766L111.101 55.1013L114.894 55.9068L116.28 49.3822L112.487 48.5766ZM112.997 57.4425H113.147V53.5657H112.997V57.4425ZM114.61 56.7751C114.903 56.4377 115.179 56.2563 115.429 56.1584L114.02 52.5469C113.105 52.9039 112.328 53.4901 111.683 54.2331L114.61 56.7751ZM115.452 56.1495C115.842 55.9915 116.186 55.9286 116.494 55.9286V52.0518C115.637 52.0518 114.801 52.2305 113.997 52.5559L115.452 56.1495ZM116.494 55.9286C116.804 55.9286 116.907 55.9795 116.895 55.9734L118.567 52.476C117.901 52.1573 117.18 52.0518 116.494 52.0518V55.9286ZM116.986 56.014C117.027 56.0313 117.042 56.0426 117.04 56.0411C117.039 56.0405 117.035 56.0376 117.029 56.0321C117.024 56.0266 117.017 56.0197 117.011 56.0118L120.071 53.6317C119.64 53.0765 119.083 52.688 118.477 52.4354L116.986 56.014ZM117.011 56.0118C117.02 56.0237 117.054 56.0697 117.083 56.191L120.853 55.2863C120.711 54.6968 120.46 54.1316 120.071 53.6317L117.011 56.0118ZM117.083 56.191C117.13 56.3857 117.157 56.6097 117.157 56.8687H121.034C121.034 56.3317 120.976 55.8023 120.853 55.2863L117.083 56.191ZM117.157 56.8687C117.157 56.996 117.147 57.2382 117.12 57.6262L120.987 57.9024C121.016 57.4943 121.034 57.1395 121.034 56.8687H117.157ZM117.12 57.6262C117.098 57.9246 117.048 58.2895 116.96 58.7274L120.762 59.4877C120.873 58.9306 120.951 58.4 120.987 57.9024L117.12 57.6262ZM116.963 58.7167C116.883 59.1045 116.765 59.5248 116.606 59.9789L120.264 61.264C120.474 60.6662 120.641 60.0773 120.76 59.4985L116.963 58.7167ZM116.612 59.9631C116.488 60.3057 116.325 60.6097 116.125 60.8825L119.252 63.1751C119.677 62.5949 120.012 61.9607 120.258 61.2798L116.612 59.9631ZM116.1 60.9172C115.971 61.1017 115.803 61.2595 115.57 61.3937L117.504 64.7534C118.209 64.3475 118.809 63.8087 119.276 63.1404L116.1 60.9172ZM115.547 61.4068C115.449 61.4652 115.259 61.5403 114.895 61.5403V65.4171C115.81 65.4171 116.715 65.2221 117.527 64.7403L115.547 61.4068ZM114.895 61.5403C114.656 61.5403 114.426 61.5139 114.201 61.462L113.329 65.2395C113.843 65.3582 114.366 65.4171 114.895 65.4171V61.5403ZM114.217 61.4659C113.98 61.4088 113.782 61.3378 113.618 61.2595L111.951 64.7597C112.383 64.9656 112.84 65.1221 113.313 65.2356L114.217 61.4659ZM113.651 61.2758C113.483 61.1916 113.348 61.1032 113.239 61.0147L110.794 64.0236C111.14 64.3047 111.517 64.5432 111.917 64.7434L113.651 61.2758ZM113.339 61.1021C113.295 61.0605 113.272 61.0336 113.264 61.0231C113.255 61.0127 113.265 61.0231 113.281 61.0553L109.814 62.789C110.043 63.2475 110.362 63.6261 110.694 63.9363L113.339 61.1021ZM111.548 59.9837H111.398V63.8606H111.548V59.9837ZM109.805 60.8188L108.845 62.2047L112.033 64.4115L112.992 63.0255L109.805 60.8188ZM112.848 63.3488C114.012 63.3488 114.847 62.6832 115.334 61.9222L112.068 59.8324C112.071 59.8289 112.134 59.7309 112.29 59.6334C112.462 59.5261 112.662 59.472 112.848 59.472V63.3488ZM115.352 61.8933C115.683 61.356 115.932 60.7673 116.115 60.1449L112.396 59.051C112.295 59.3953 112.175 59.6595 112.05 59.8614L115.352 61.8933ZM116.119 60.1305C116.288 59.5391 116.409 58.9463 116.479 58.3532L112.629 57.9003C112.585 58.2738 112.507 58.6619 112.392 59.0655L116.119 60.1305ZM116.473 58.4009C116.546 57.8876 116.599 57.4046 116.599 57.018H112.722C112.722 57.1147 112.704 57.3708 112.635 57.8526L116.473 58.4009ZM116.599 57.018C116.599 56.5216 116.514 55.9449 116.218 55.3953L112.805 57.2333C112.708 57.0534 112.722 56.9457 112.722 57.018H116.599ZM116.271 55.502C116.073 55.0732 115.744 54.6821 115.279 54.4189C114.834 54.1676 114.382 54.0987 114.021 54.0987V57.9755C113.901 57.9755 113.652 57.9529 113.371 57.7939C113.069 57.6232 112.864 57.3706 112.751 57.1266L116.271 55.502ZM114.021 54.0987C113.201 54.0987 112.495 54.4224 111.95 54.9035L114.515 57.8105C114.493 57.8292 114.436 57.8743 114.339 57.9135C114.238 57.9542 114.128 57.9755 114.021 57.9755V54.0987ZM112 54.8607C111.717 55.0934 111.421 55.3626 111.185 55.6578L114.213 58.0796C114.202 58.0931 114.212 58.0781 114.26 58.0325C114.305 57.9889 114.372 57.9295 114.464 57.8533L112 54.8607ZM110.805 56.4561L109.973 60.2728L113.761 61.0981L114.593 57.2814L110.805 56.4561ZM110.193 61.6621C110.386 61.9925 110.62 62.2863 110.881 62.5465L113.622 59.8052C113.569 59.7527 113.548 59.7195 113.542 59.7087L110.193 61.6621ZM110.941 62.6048C111.463 63.0825 112.127 63.3488 112.848 63.3488V59.472C112.961 59.472 113.097 59.4924 113.237 59.5476C113.377 59.6025 113.485 59.6775 113.561 59.747L110.941 62.6048ZM124.319 59.0223V57.0839H122.701L122.412 58.6755L124.319 59.0223ZM124.191 59.9178L122.262 59.725L122.257 59.7729L122.255 59.821L124.191 59.9178ZM124.276 61.5597L122.42 62.1167L122.455 62.2345L122.505 62.3469L124.276 61.5597ZM124.489 61.9008L123.018 63.1623L123.115 63.2755L123.228 63.3726L124.489 61.9008ZM125.321 61.9008L124.454 60.1671L124.423 60.1825L124.393 60.1991L125.321 61.9008ZM125.811 61.5383L124.502 60.1094L124.471 60.1379L124.441 60.1677L125.811 61.5383ZM126.281 60.9626L124.683 59.8645L124.659 59.8994L124.637 59.9353L126.281 60.9626ZM126.643 60.195V58.2566H125.201L124.786 59.638L126.643 60.195ZM130.14 60.195L132.023 60.6527L132.606 58.2566H130.14V60.195ZM129.586 62.4765L130.642 64.1018L131.287 63.6822L131.469 62.9342L129.586 62.4765ZM128.605 62.9456L129.239 64.7774L129.239 64.7774L128.605 62.9456ZM127.432 63.2655L127.761 65.1757L127.793 65.1702L127.825 65.1637L127.432 63.2655ZM126.174 63.4147L126.045 61.4806L126.013 61.4827L125.981 61.4859L126.174 63.4147ZM122.976 63.2868L122.578 65.1841L122.578 65.1841L122.976 63.2868ZM121.376 62.6258L122.475 61.0285L122.475 61.0285L121.376 62.6258ZM120.289 61.3891L118.546 62.2371L118.56 62.2657L118.575 62.2939L120.289 61.3891ZM120.225 57.4018L118.39 56.7771L118.384 56.7947L118.378 56.8124L120.225 57.4018ZM121.334 55.632L119.963 54.2614L119.963 54.2614L121.334 55.632ZM123.423 54.374L122.775 52.5472L122.766 52.5505L123.423 54.374ZM129.905 54.5659L128.884 56.2133L128.891 56.2179L128.899 56.2223L129.905 54.5659ZM130.822 57.8922L132.699 58.3766L132.701 58.3695L132.703 58.3623L130.822 57.8922ZM130.31 59.0223V60.9607H131.298L131.878 60.1624L130.31 59.0223ZM125.79 55.5894L126.972 57.1258L126.98 57.1197L126.988 57.1136L125.79 55.5894ZM125.278 56.1864L126.906 57.2394L126.919 57.2185L126.932 57.1972L125.278 56.1864ZM124.852 57.0393L126.646 57.7732L126.652 57.7595L126.657 57.7457L124.852 57.0393ZM124.532 58.0415L122.647 57.5891L122.073 59.9799H124.532V58.0415ZM126.963 58.0415V59.9799H128.605L128.875 58.3601L126.963 58.0415ZM127.048 57.5084L125.141 57.1616L125.136 57.1876L125.132 57.2136L127.048 57.5084ZM127.112 56.9967L125.196 56.7019L125.185 56.7746L125.179 56.848L127.112 56.9967ZM122.412 58.6755C122.347 59.0337 122.296 59.3837 122.262 59.725L126.12 60.1107C126.142 59.8833 126.177 59.6364 126.226 59.369L122.412 58.6755ZM122.255 59.821C122.239 60.13 122.231 60.4189 122.231 60.6854H126.108C126.108 60.4971 126.114 60.2743 126.127 60.0146L122.255 59.821ZM122.231 60.6854C122.231 60.8833 122.242 61.0852 122.26 61.2874L126.121 60.9364C126.111 60.8258 126.108 60.7434 126.108 60.6854H122.231ZM122.26 61.2874C122.286 61.5656 122.338 61.8432 122.42 62.1167L126.133 61.0027C126.13 60.9919 126.125 60.9709 126.121 60.9364L122.26 61.2874ZM122.505 62.3469C122.633 62.6349 122.802 62.9107 123.018 63.1623L125.961 60.6393C126.006 60.6919 126.033 60.7403 126.048 60.7724L122.505 62.3469ZM123.228 63.3726C123.773 63.8401 124.403 63.9672 124.895 63.9672V60.0904C125.045 60.0904 125.404 60.1321 125.751 60.4291L123.228 63.3726ZM124.895 63.9672C125.449 63.9672 125.914 63.7854 126.249 63.6025L124.393 60.1991C124.415 60.1868 124.596 60.0904 124.895 60.0904V63.9672ZM126.188 63.6346C126.572 63.4426 126.901 63.1897 127.182 62.909L124.441 60.1677C124.409 60.1997 124.411 60.1885 124.454 60.1671L126.188 63.6346ZM127.121 62.9672C127.439 62.6757 127.704 62.3428 127.924 61.99L124.637 59.9353C124.573 60.0374 124.525 60.0882 124.502 60.1094L127.121 62.9672ZM127.878 62.0608C128.157 61.6555 128.361 61.2146 128.5 60.752L124.786 59.638C124.755 59.7441 124.717 59.8149 124.683 59.8645L127.878 62.0608ZM126.643 62.1334H130.14V58.2566H126.643V62.1334ZM128.256 59.7373L127.702 62.0188L131.469 62.9342L132.023 60.6527L128.256 59.7373ZM128.529 60.8513C128.395 60.9384 128.214 61.0297 127.971 61.1139L129.239 64.7774C129.735 64.6057 130.207 64.3842 130.642 64.1018L128.529 60.8513ZM127.971 61.1139C127.686 61.2125 127.376 61.2976 127.039 61.3673L127.825 65.1637C128.313 65.0627 128.785 64.9346 129.239 64.7774L127.971 61.1139ZM127.103 61.3552C126.758 61.4146 126.406 61.4566 126.045 61.4806L126.303 65.3488C126.795 65.316 127.281 65.2584 127.761 65.1757L127.103 61.3552ZM125.981 61.4859C125.611 61.5229 125.271 61.5403 124.959 61.5403V65.4171C125.414 65.4171 125.884 65.3918 126.367 65.3435L125.981 61.4859ZM124.959 61.5403C124.363 61.5403 123.837 61.4866 123.373 61.3895L122.578 65.1841C123.337 65.3428 124.132 65.4171 124.959 65.4171V61.5403ZM123.373 61.3895C122.98 61.3073 122.692 61.1779 122.475 61.0285L120.278 64.2231C120.971 64.6991 121.749 65.0104 122.578 65.1841L123.373 61.3895ZM122.475 61.0285C122.291 60.902 122.134 60.7326 122.003 60.4843L118.575 62.2939C118.984 63.0691 119.552 63.7241 120.278 64.2231L122.475 61.0285ZM122.032 60.5411C121.938 60.3485 121.844 60.0106 121.844 59.4487H117.967C117.967 60.4221 118.128 61.3777 118.546 62.2371L122.032 60.5411ZM121.844 59.4487C121.844 58.9536 121.919 58.47 122.072 57.9911L118.378 56.8124C118.105 57.6697 117.967 58.5508 117.967 59.4487H121.844ZM122.06 58.0265C122.189 57.6466 122.397 57.3101 122.704 57.0027L119.963 54.2614C119.247 54.9774 118.716 55.8208 118.39 56.7771L122.06 58.0265ZM122.704 57.0027C122.987 56.7205 123.419 56.436 124.081 56.1974L122.766 52.5505C121.693 52.9374 120.733 53.4916 119.963 54.2614L122.704 57.0027ZM124.072 56.2008C124.68 55.9849 125.539 55.8433 126.707 55.8433V51.9665C125.26 51.9665 123.929 52.1376 122.775 52.5472L124.072 56.2008ZM126.707 55.8433C127.991 55.8433 128.626 56.0536 128.884 56.2133L130.927 52.9184C129.763 52.1968 128.266 51.9665 126.707 51.9665V55.8433ZM128.899 56.2223C128.948 56.2527 128.973 56.2757 128.984 56.2871C128.995 56.2977 129 56.3059 129.005 56.3155C129.013 56.3306 129.054 56.4156 129.054 56.6342H132.931C132.931 55.105 132.285 53.7442 130.912 52.9095L128.899 56.2223ZM129.054 56.6342C129.054 56.8291 129.025 57.0884 128.942 57.4221L132.703 58.3623C132.847 57.7863 132.931 57.2069 132.931 56.6342H129.054ZM128.945 57.4078C128.882 57.6534 128.804 57.7982 128.743 57.8822L131.878 60.1624C132.272 59.6209 132.535 59.0123 132.699 58.3766L128.945 57.4078ZM130.31 57.0839H124.319V60.9607H130.31V57.0839ZM129.093 56.4849C129.093 56.173 129.069 55.8263 128.987 55.4816C128.908 55.1482 128.744 54.6909 128.376 54.2855L125.507 56.8933C125.39 56.7649 125.32 56.6426 125.28 56.556C125.239 56.4702 125.222 56.4064 125.216 56.3795C125.205 56.3332 125.216 56.3562 125.216 56.4849H129.093ZM128.376 54.2855C127.892 53.7532 127.212 53.4164 126.43 53.4164V57.2932C126.268 57.2932 126.083 57.2596 125.899 57.1756C125.719 57.0928 125.59 56.9842 125.507 56.8933L128.376 54.2855ZM126.43 53.4164C125.719 53.4164 125.092 53.6725 124.593 54.0652L126.988 57.1136C126.945 57.147 126.872 57.1948 126.767 57.2334C126.659 57.2728 126.543 57.2932 126.43 57.2932V53.4164ZM124.608 54.0529C124.19 54.3748 123.871 54.7724 123.624 55.1756L126.932 57.1972C126.964 57.1452 126.986 57.1174 126.995 57.1067C127.004 57.0963 126.998 57.1061 126.972 57.1258L124.608 54.0529ZM123.651 55.1334C123.41 55.505 123.212 55.9101 123.047 56.3329L126.657 57.7457C126.747 57.5146 126.834 57.3511 126.906 57.2394L123.651 55.1334ZM123.058 56.3054C122.89 56.7166 122.754 57.1454 122.647 57.5891L126.417 58.4938C126.481 58.2268 126.558 57.9875 126.646 57.7732L123.058 56.3054ZM124.532 59.9799H126.963V56.103H124.532V59.9799ZM128.875 58.3601C128.905 58.181 128.934 57.9953 128.964 57.8031L125.132 57.2136C125.105 57.3911 125.078 57.5608 125.051 57.7228L128.875 58.3601ZM128.955 57.8551C128.997 57.6235 129.026 57.3859 129.045 57.1453L125.179 56.848C125.169 56.977 125.156 57.0805 125.141 57.1616L128.955 57.8551ZM129.028 57.2914C129.069 57.0273 129.093 56.7568 129.093 56.4849H125.216C125.216 56.5257 125.212 56.5964 125.196 56.7019L129.028 57.2914ZM132.208 54.1394L131.798 52.2448L130.568 52.5108L130.311 53.743L132.208 54.1394ZM133.594 53.7556L134.246 55.5811L134.246 55.5811L133.594 53.7556ZM134.681 53.2226L133.654 51.5788L133.638 51.5887L133.623 51.5989L134.681 53.2226ZM135.641 52.4336L134.27 51.063L134.254 51.0789L134.239 51.0952L135.641 52.4336ZM136.643 51.2822V49.3438H135.698L135.116 50.0889L136.643 51.2822ZM138.839 51.2822L140.734 51.6922L141.242 49.3438H138.839V51.2822ZM138.221 54.1394L136.326 53.7294L135.818 56.0778H138.221V54.1394ZM139.884 54.1394L141.787 54.5087L142.235 52.201H139.884V54.1394ZM139.607 55.568V57.5065H141.205L141.51 55.9373L139.607 55.568ZM137.922 55.568V53.6296H136.349L136.026 55.1692L137.922 55.568ZM137.048 59.7259L138.942 60.1377L138.945 60.1248L137.048 59.7259ZM136.878 60.6002L138.79 60.9188L138.79 60.9188L136.878 60.6002ZM137.112 61.7302L136.46 63.5557L136.48 63.5627L136.499 63.5692L137.112 61.7302ZM138.285 61.8369L140.179 62.2486L140.69 59.8984H138.285V61.8369ZM137.965 63.3081L138.498 65.1719L139.613 64.8533L139.859 63.7199L137.965 63.3081ZM137.496 63.3721L137.367 61.4379L137.358 61.4386L137.496 63.3721ZM136.814 63.4147L136.706 61.4793L136.647 61.4826L136.587 61.4896L136.814 63.4147ZM136.046 63.4574V61.519H135.992L135.939 61.5219L136.046 63.4574ZM134.319 63.3934L134.638 61.4814L134.599 61.4749L134.559 61.47L134.319 63.3934ZM133.402 63.1162L132.431 64.7938L132.465 64.8133L132.499 64.8315L133.402 63.1162ZM132.741 62.4552L131.043 63.3894L131.06 63.4213L131.079 63.4525L132.741 62.4552ZM132.528 60.6641L130.601 60.4501L130.595 60.5032L130.592 60.5566L132.528 60.6641ZM132.677 59.8112L134.567 60.2408L134.571 60.2262L134.574 60.2115L132.677 59.8112ZM133.573 55.568L135.469 55.9683L135.963 53.6296H133.573V55.568ZM131.909 55.568L130.012 55.1716L129.524 57.5065H131.909V55.568ZM132.618 56.0341C133.205 55.9071 133.751 55.758 134.246 55.5811L132.942 51.9302C132.641 52.0376 132.263 52.1443 131.798 52.2448L132.618 56.0341ZM134.246 55.5811C134.775 55.3921 135.276 55.149 135.74 54.8462L133.623 51.5989C133.433 51.7226 133.209 51.8349 132.942 51.9302L134.246 55.5811ZM135.709 54.8663C136.197 54.5612 136.641 54.1931 137.043 53.7721L134.239 51.0952C134.044 51.2996 133.848 51.4575 133.654 51.5788L135.709 54.8663ZM137.012 53.8043C137.394 53.4219 137.78 52.9751 138.171 52.4756L135.116 50.0889C134.795 50.4991 134.513 50.8199 134.27 51.063L137.012 53.8043ZM136.643 53.2206H138.839V49.3438H136.643V53.2206ZM136.945 50.8722L136.326 53.7294L140.115 54.5495L140.734 51.6922L136.945 50.8722ZM138.221 56.0778H139.884V52.201H138.221V56.0778ZM137.981 53.7702L137.704 55.1988L141.51 55.9373L141.787 54.5087L137.981 53.7702ZM139.607 53.6296H137.922V57.5065H139.607V53.6296ZM136.026 55.1692L135.151 59.3271L138.945 60.1248L139.819 55.9669L136.026 55.1692ZM135.154 59.3142C135.078 59.6637 135.015 59.987 134.966 60.2815L138.79 60.9188C138.826 60.7015 138.876 60.4421 138.942 60.1377L135.154 59.3142ZM134.966 60.2815C134.917 60.5718 134.875 60.8948 134.875 61.1972H138.752C138.752 61.2165 138.751 61.204 138.757 61.1478C138.763 61.0949 138.773 61.0198 138.79 60.9188L134.966 60.2815ZM134.875 61.1972C134.875 61.5464 134.934 62.0205 135.197 62.4908C135.485 63.0049 135.938 63.3691 136.46 63.5557L137.764 59.9048C138.088 60.0203 138.391 60.2601 138.58 60.5966C138.743 60.8892 138.752 61.1323 138.752 61.1972H134.875ZM136.499 63.5692C137.047 63.7517 137.731 63.7753 138.285 63.7753V59.8984C138.036 59.8984 137.858 59.8905 137.741 59.8798C137.683 59.8745 137.652 59.8697 137.642 59.868C137.629 59.8657 137.662 59.8704 137.725 59.8913L136.499 63.5692ZM136.391 61.4251L136.071 62.8963L139.859 63.7199L140.179 62.2486L136.391 61.4251ZM137.433 61.4443C137.473 61.4328 137.5 61.4272 137.51 61.4253C137.52 61.4233 137.521 61.4234 137.511 61.4248C137.502 61.4261 137.485 61.4282 137.46 61.4306C137.435 61.433 137.404 61.4355 137.367 61.438L137.625 65.3062C137.862 65.2903 138.19 65.2597 138.498 65.1719L137.433 61.4443ZM137.358 61.4386C137.171 61.4519 136.955 61.4655 136.706 61.4793L136.921 65.3501C137.185 65.3355 137.423 65.3207 137.634 65.3056L137.358 61.4386ZM136.587 61.4896C136.428 61.5083 136.249 61.519 136.046 61.519V65.3958C136.384 65.3958 136.716 65.378 137.04 65.3398L136.587 61.4896ZM135.939 61.5219C135.709 61.5347 135.518 61.5403 135.364 61.5403V65.4171C135.607 65.4171 135.871 65.4085 136.154 65.3928L135.939 61.5219ZM135.364 61.5403C135.112 61.5403 134.871 61.5202 134.638 61.4814L134 65.3054C134.45 65.3803 134.905 65.4171 135.364 65.4171V61.5403ZM134.559 61.47C134.421 61.4526 134.344 61.4215 134.305 61.4009L132.499 64.8315C133 65.0952 133.535 65.2489 134.079 65.3168L134.559 61.47ZM134.373 61.4387C134.378 61.4413 134.384 61.445 134.39 61.4497C134.396 61.4543 134.401 61.459 134.405 61.463C134.414 61.4718 134.412 61.4728 134.403 61.4579L131.079 63.4525C131.408 64.0003 131.859 64.4625 132.431 64.7938L134.373 61.4387ZM134.44 61.5211C134.473 61.5813 134.472 61.6059 134.465 61.5672C134.457 61.5281 134.445 61.4444 134.445 61.3038H130.568C130.568 61.9659 130.67 62.7125 131.043 63.3894L134.44 61.5211ZM134.445 61.3038C134.445 61.182 134.45 61.0075 134.463 60.7716L130.592 60.5566C130.577 60.8324 130.568 61.0844 130.568 61.3038H134.445ZM134.454 60.8782C134.473 60.7098 134.509 60.4989 134.567 60.2408L130.787 59.3816C130.703 59.749 130.639 60.1067 130.601 60.4501L134.454 60.8782ZM134.574 60.2115L135.469 55.9683L131.676 55.1678L130.78 59.4109L134.574 60.2115ZM133.573 53.6296H131.909V57.5065H133.573V53.6296ZM133.807 55.9645L134.105 54.5359L130.311 53.743L130.012 55.1716L133.807 55.9645Z" fill="#192494"/>
</g>
<defs>
<filter id="filter0_d_9_2956" x="0.0307969" y="11.9478" width="100.505" height="30.2391" filterUnits="userSpaceOnUse" color-interpolation-filters="sRGB">
<feFlood flood-opacity="0" result="BackgroundImageFix"/>
<feColorMatrix in="SourceAlpha" type="matrix" values="0 0 0 0 0 0 0 0 0 0 0 0 0 0 0 0 0 0 127 0" result="hardAlpha"/>
<feOffset dx="-0.969203" dy="3.87681"/>
<feComposite in2="hardAlpha" operator="out"/>
<feColorMatrix type="matrix" values="0 0 0 0 0.0980392 0 0 0 0 0.141176 0 0 0 0 0.580392 0 0 0 1 0"/>
<feBlend mode="normal" in2="BackgroundImageFix" result="effect1_dropShadow_9_2956"/>
<feBlend mode="normal" in="SourceGraphic" in2="effect1_dropShadow_9_2956" result="shape"/>
</filter>
<filter id="filter1_d_9_2956" x="26.1993" y="39.8613" width="113.685" height="27.6029" filterUnits="userSpaceOnUse" color-interpolation-filters="sRGB">
<feFlood flood-opacity="0" result="BackgroundImageFix"/>
<feColorMatrix in="SourceAlpha" type="matrix" values="0 0 0 0 0 0 0 0 0 0 0 0 0 0 0 0 0 0 127 0" result="hardAlpha"/>
<feOffset dx="-0.969203" dy="3.87681"/>
<feComposite in2="hardAlpha" operator="out"/>
<feColorMatrix type="matrix" values="0 0 0 0 0.0980392 0 0 0 0 0.141176 0 0 0 0 0.580392 0 0 0 1 0"/>
<feBlend mode="normal" in2="BackgroundImageFix" result="effect1_dropShadow_9_2956"/>
<feBlend mode="normal" in="SourceGraphic" in2="effect1_dropShadow_9_2956" result="shape"/>
</filter>
</defs>
</svg>
