<svg width="24" height="20" viewBox="0 0 24 20" fill="none" xmlns="http://www.w3.org/2000/svg">
<path d="M1.33333 20C0.955556 20 0.639111 19.872 0.384 19.616C0.128 19.3609 0 19.0444 0 18.6667C0 18.2889 0.128 17.9724 0.384 17.7173C0.639111 17.4613 0.955556 17.3333 1.33333 17.3333H22.6667C23.0444 17.3333 23.3609 17.4613 23.616 17.7173C23.872 17.9724 24 18.2889 24 18.6667C24 19.0444 23.872 19.3609 23.616 19.616C23.3609 19.872 23.0444 20 22.6667 20H1.33333ZM1.33333 11.3333C0.955556 11.3333 0.639111 11.2053 0.384 10.9493C0.128 10.6942 0 10.3778 0 10C0 9.62222 0.128 9.30533 0.384 9.04933C0.639111 8.79422 0.955556 8.66667 1.33333 8.66667H22.6667C23.0444 8.66667 23.3609 8.79422 23.616 9.04933C23.872 9.30533 24 9.62222 24 10C24 10.3778 23.872 10.6942 23.616 10.9493C23.3609 11.2053 23.0444 11.3333 22.6667 11.3333H1.33333ZM1.33333 2.66667C0.955556 2.66667 0.639111 2.53911 0.384 2.284C0.128 2.028 0 1.71111 0 1.33333C0 0.955556 0.128 0.638667 0.384 0.382667C0.639111 0.127556 0.955556 0 1.33333 0H22.6667C23.0444 0 23.3609 0.127556 23.616 0.382667C23.872 0.638667 24 0.955556 24 1.33333C24 1.71111 23.872 2.028 23.616 2.284C23.3609 2.53911 23.0444 2.66667 22.6667 2.66667H1.33333Z" fill="white"/>
</svg>
